<?xml version="1.0" standalone="no"?>
<!DOCTYPE svg PUBLIC "-//W3C//DTD SVG 20010904//EN" "http://www.w3.org/TR/2001/REC-SVG-20010904/DTD/svg10.dtd">
<svg xmlns="http://www.w3.org/2000/svg" version="1.0" width="960.000000pt" height="719.000000pt" viewBox="0 0 960 719" preserveAspectRatio="xMidYMid meet">
    <g transform="translate(0.000000,719.000000) scale(0.100000,-0.100000)" fill="#000000" stroke="none">
        <path d="M3630 7172 c0 -8 12 -26 26 -39 25 -23 26 -26 13 -60 -18 -46 -41 -57 -37 -17 3 24 -1 30 -22 32 -14 2 -29 10 -33 18 -4 8 -15 14 -23 14 -8 0 -12 -4 -9 -10 3 -6 -1 -7 -9 -4 -9 3 -16 2 -16 -3 0 -5 -14 -17 -31 -27 l-30 -18 -33 36 c-30 31 -37 34 -62 26 -31 -9 -31 -9 5 -16 34 -6 35 -9 21 -44 -17 -42 -27 -45 -49 -19 -18 22 -19 22 -36 5 -13 -12 -21 -14 -28 -7 -11 11 -57 15 -57 5 0 -10 28 -34 39 -34 6 0 11 -7 11 -15 0 -21 -6 -19 -34 12 -29 31 -45 24 -27 -11 10 -19 11 -32 2 -58 -6 -19 -9 -44 -6 -54 4 -13 2 -12 -6 4 -15 28 -33 29 -24 1 5 -14 3 -19 -3 -15 -6 4 -8 -2 -5 -13 4 -16 -2 -21 -30 -26 -20 -4 -41 -4 -48 1 -12 7 -10 -9 6 -48 5 -13 1 -20 -16 -26 l-23 -9 21 -12 c12 -6 30 -11 41 -11 27 0 33 -9 19 -31 -14 -23 -53 -25 -61 -4 -4 12 -14 14 -43 9 -21 -3 -44 -12 -52 -20 -12 -11 -10 -15 11 -25 20 -9 28 -21 33 -55 4 -28 10 -42 17 -38 7 4 8 2 4 -4 -11 -19 3 -35 19 -22 10 8 15 8 21 -1 4 -7 0 -17 -9 -24 -10 -7 -17 -20 -17 -29 0 -10 -4 -14 -10 -11 -6 4 -10 -5 -10 -19 0 -19 -5 -26 -20 -26 -24 0 -26 13 -4 34 19 19 19 19 -31 0 -22 -8 -48 -17 -57 -21 -21 -6 -24 -33 -4 -33 20 0 27 -25 12 -45 -14 -20 -1 -61 21 -69 13 -6 43 47 43 76 0 10 5 18 11 18 5 0 7 5 4 10 -3 6 0 10 9 10 8 0 16 4 18 9 2 4 14 12 27 16 21 6 23 5 17 -11 -6 -15 -5 -16 5 -7 9 9 10 19 2 35 -8 18 -6 27 8 42 10 10 20 28 22 40 2 11 5 4 6 -16 1 -38 17 -51 28 -23 6 18 74 55 99 55 9 0 28 6 42 14 58 29 89 35 106 18 15 -15 16 -15 16 1 0 20 33 39 54 31 9 -4 23 -1 31 6 12 10 16 8 25 -14 9 -24 12 -26 32 -15 35 18 68 51 69 68 0 14 1 14 6 1 7 -16 33 -39 46 -40 5 0 5 10 1 22 -6 20 -5 21 10 9 9 -7 16 -21 16 -31 0 -11 10 -20 24 -24 14 -3 28 -15 31 -26 7 -23 35 -27 35 -6 0 8 4 17 9 20 15 10 41 -5 41 -22 0 -13 3 -12 15 4 9 11 14 14 15 6 0 -7 6 -12 13 -10 6 2 29 -8 50 -21 21 -13 54 -25 73 -26 20 -2 41 -10 47 -18 17 -19 64 -47 81 -47 8 0 16 -4 18 -8 2 -4 37 -25 78 -45 79 -40 166 -67 213 -67 72 0 110 -51 111 -147 1 -41 5 -57 19 -64 9 -6 17 -17 17 -24 0 -8 9 -15 20 -15 11 0 20 -6 20 -14 0 -8 23 -33 51 -56 31 -27 52 -53 56 -71 3 -16 9 -29 14 -29 5 0 9 -11 9 -24 0 -14 8 -32 17 -42 19 -18 63 -136 63 -166 0 -38 18 -7 24 42 7 51 24 70 65 70 29 0 71 43 71 72 0 14 7 31 15 38 10 8 13 21 9 33 -4 11 -2 17 4 13 15 -9 43 28 45 60 2 26 -1 29 -28 28 -47 -1 -58 23 -23 55 17 16 19 23 9 35 -6 7 -10 20 -9 27 2 8 -14 22 -34 32 -24 12 -38 26 -38 37 0 11 -9 24 -20 30 -26 14 -26 40 1 40 12 0 19 5 16 13 -2 6 -14 12 -26 11 -16 0 -21 5 -21 23 0 25 -10 29 -27 12 -8 -8 -13 3 -18 39 -6 46 -17 64 -60 101 -14 11 -19 10 -37 -8 -11 -12 -25 -20 -31 -18 -6 2 -18 -5 -27 -15 -22 -27 -50 -14 -50 24 0 17 4 27 10 23 6 -3 10 -13 10 -21 0 -8 5 -14 11 -14 7 0 9 10 5 25 -5 18 -2 27 9 31 25 10 17 22 -25 44 -22 11 -40 27 -40 35 0 8 -8 15 -17 15 -10 0 -23 12 -30 26 -10 22 -10 25 4 20 9 -4 21 1 29 11 17 23 18 34 1 27 -8 -3 -19 7 -26 22 -6 15 -15 24 -18 20 -3 -3 -12 -1 -20 5 -10 9 -10 15 -2 25 8 9 5 18 -10 33 -12 12 -21 26 -21 32 0 7 -10 9 -24 5 -14 -3 -28 -2 -31 4 -3 5 -23 10 -44 10 -36 0 -39 -3 -45 -33 -5 -28 -47 -87 -62 -87 -2 0 2 13 11 30 22 42 19 58 -14 75 -16 8 -31 20 -34 27 -2 7 -7 11 -10 8 -6 -6 24 -128 36 -148 5 -8 -4 -23 -25 -43 -48 -44 -68 -54 -68 -33 0 10 3 14 7 11 10 -11 63 44 63 66 0 24 -30 129 -39 140 -4 4 -21 10 -37 13 -38 7 -63 34 -54 59 10 27 -24 52 -45 35 -8 -7 -22 -9 -32 -5 -36 15 -62 14 -66 -3 -3 -13 -6 -11 -17 10 -7 16 -18 24 -26 21 -10 -4 -14 4 -14 26 0 17 -5 31 -10 31 -11 0 -35 49 -31 63 1 5 -3 6 -9 2 -6 -4 -26 10 -45 31 -38 42 -47 28 -15 -24 11 -18 20 -39 20 -46 0 -8 7 -16 15 -20 8 -3 15 -11 15 -17 0 -8 -7 -6 -18 4 -20 18 -38 22 -45 10 -2 -5 -2 -2 -1 5 2 6 -5 12 -16 12 -11 0 -20 5 -20 10 0 6 -8 10 -17 10 -9 0 -36 21 -59 46 -43 47 -94 66 -94 36z m110 -108 c0 -8 -4 -12 -10 -9 -5 3 -10 10 -10 16 0 5 5 9 10 9 6 0 10 -7 10 -16z m-295 -15 c12 -18 -3 -22 -20 -5 -14 14 -14 16 -1 16 8 0 18 -5 21 -11z m299 -25 c9 -24 8 -25 -13 -12 -11 7 -17 16 -15 20 8 13 21 9 28 -8z m-5 -46 c3 1 14 -5 24 -13 9 -8 17 -10 17 -5 0 6 9 10 21 10 12 0 19 -5 17 -12 -6 -16 -58 -23 -58 -9 0 6 -4 11 -10 11 -5 0 -10 -7 -10 -15 0 -8 -4 -15 -10 -15 -5 0 -10 7 -10 15 0 9 -6 15 -14 13 -15 -3 -16 -2 -16 34 0 21 0 21 21 2 12 -10 24 -18 28 -16z m186 16 c14 -9 25 -23 25 -31 0 -9 -5 -11 -12 -6 -7 4 -22 8 -33 8 -13 0 -21 8 -23 23 -4 26 9 28 43 6z m-671 -109 c3 -9 0 -15 -9 -15 -8 0 -15 7 -15 15 0 8 4 15 9 15 5 0 11 -7 15 -15z m-107 -101 c-3 -3 -12 -4 -19 -1 -8 3 -5 6 6 6 11 1 17 -2 13 -5z m1080 -51 c-3 -10 -5 -4 -5 12 0 17 2 24 5 18 2 -7 2 -21 0 -30z m-427 17 c0 -5 -4 -10 -10 -10 -5 0 -10 5 -10 10 0 6 5 10 10 10 6 0 10 -4 10 -10z m-180 -36 c0 -8 -4 -14 -9 -14 -11 0 -22 26 -14 34 9 9 23 -3 23 -20z m210 6 c0 -5 -5 -10 -11 -10 -5 0 -7 5 -4 10 3 6 8 10 11 10 2 0 4 -4 4 -10z m-665 -86 c20 -48 20 -94 0 -94 -9 0 -18 6 -21 14 -3 8 -13 12 -26 8 -20 -5 -20 -5 -2 24 10 16 23 32 29 36 6 5 3 8 -7 8 -21 0 -23 11 -6 28 16 16 16 17 33 -24z m1151 -21 c-12 -13 -25 13 -19 37 l7 24 9 -27 c5 -16 6 -31 3 -34z m-247 15 c6 -17 9 -34 6 -36 -8 -8 -15 2 -25 37 -11 41 5 40 19 -1z m146 -68 c3 -5 1 -10 -4 -10 -6 0 -11 5 -11 10 0 6 2 10 4 10 3 0 8 -4 11 -10z m-1230 -160 c3 -5 -1 -10 -9 -10 -9 0 -16 5 -16 10 0 6 4 10 9 10 6 0 13 -4 16 -10z"/>
        <path d="M3955 7140 c3 -5 10 -10 16 -10 5 0 9 5 9 10 0 6 -7 10 -16 10 -8 0 -12 -4 -9 -10z"/>
        <path d="M3978 7113 c7 -3 16 -2 19 1 4 3 -2 6 -13 5 -11 0 -14 -3 -6 -6z"/>
        <path d="M3447 7103 c-12 -12 -7 -22 8 -17 8 4 15 10 15 15 0 11 -14 12 -23 2z"/>
        <path d="M4038 7045 c-2 -22 0 -34 6 -31 6 2 10 9 9 15 -4 14 10 14 23 1 12 -12 44 -3 44 12 0 6 -9 8 -20 5 -13 -3 -24 1 -30 14 -16 29 -27 23 -32 -16z"/>
        <path d="M3185 7061 c-3 -5 -1 -12 5 -16 5 -3 10 1 10 9 0 18 -6 21 -15 7z"/>
        <path d="M4005 7060 c-3 -5 -1 -10 4 -10 6 0 11 5 11 10 0 6 -2 10 -4 10 -3 0 -8 -4 -11 -10z"/>
        <path d="M4200 7026 c0 -43 2 -46 27 -46 24 0 25 -1 10 -12 -16 -12 -16 -15 0 -47 22 -43 43 -52 43 -19 0 13 -6 30 -12 37 -11 10 -9 15 7 27 11 9 19 20 17 26 -1 5 7 12 18 15 11 3 20 12 20 20 0 8 -5 11 -11 8 -5 -4 -18 0 -28 9 -9 8 -34 18 -54 21 l-37 6 0 -45z m70 -8 c0 -13 -23 -5 -28 10 -2 7 2 10 12 6 9 -3 16 -11 16 -16z"/>
        <path d="M4150 7051 c0 -6 5 -13 10 -16 6 -3 10 1 10 9 0 9 -4 16 -10 16 -5 0 -10 -4 -10 -9z"/>
        <path d="M3970 7043 c0 -5 5 -15 10 -23 8 -12 10 -11 10 8 0 12 -4 22 -10 22 -5 0 -10 -3 -10 -7z"/>
        <path d="M4005 7010 c3 -5 8 -10 11 -10 2 0 4 5 4 10 0 6 -5 10 -11 10 -5 0 -7 -4 -4 -10z"/>
        <path d="M3125 6990 c3 -5 11 -10 16 -10 6 0 7 5 4 10 -3 6 -11 10 -16 10 -6 0 -7 -4 -4 -10z"/>
        <path d="M4339 6984 c-1 -5 0 -19 1 -32 1 -13 -3 -29 -9 -36 -9 -10 -8 -15 3 -19 9 -4 20 1 25 11 6 10 11 12 11 5 0 -24 20 -13 20 10 0 22 -49 81 -51 61z"/>
        <path d="M4306 6953 c-12 -12 -6 -33 9 -33 8 0 15 6 15 14 0 17 -14 28 -24 19z"/>
        <path d="M3136 6941 c-8 -12 3 -41 15 -41 12 0 12 37 0 45 -5 3 -12 1 -15 -4z"/>
        <path d="M3100 6880 c0 -5 5 -10 11 -10 5 0 7 5 4 10 -3 6 -8 10 -11 10 -2 0 -4 -4 -4 -10z"/>
        <path d="M4754 6615 c-7 -18 3 -35 22 -35 20 0 30 30 13 41 -20 12 -29 11 -35 -6z"/>
        <path d="M3010 6530 c0 -5 5 -10 10 -10 6 0 10 5 10 10 0 6 -4 10 -10 10 -5 0 -10 -4 -10 -10z"/>
        <path d="M2985 6500 c3 -5 8 -10 11 -10 2 0 4 5 4 10 0 6 -5 10 -11 10 -5 0 -7 -4 -4 -10z"/>
        <path d="M2920 6260 c0 -5 7 -10 15 -10 8 0 15 5 15 10 0 6 -7 10 -15 10 -8 0 -15 -4 -15 -10z"/>
        <path d="M2863 6123 c-18 -7 -16 -23 2 -23 8 0 15 7 15 15 0 8 -1 15 -2 14 -2 0 -9 -3 -15 -6z"/>
        <path d="M3090 5830 c12 -9 10 -10 -12 -6 -34 8 -36 -6 -5 -27 33 -22 11 -37 -56 -39 -31 -1 -57 -5 -57 -10 0 -4 3 -7 8 -7 25 4 82 -2 82 -10 0 -4 -25 -11 -56 -15 -31 -3 -67 -15 -80 -25 l-23 -18 42 -6 c30 -4 47 -1 59 10 16 14 18 14 27 -9 9 -23 17 -26 113 -38 57 -7 120 -15 140 -17 31 -4 41 0 63 23 14 15 30 45 36 68 6 23 20 58 30 79 10 22 19 41 19 43 0 2 -16 -5 -36 -16 -19 -11 -41 -17 -47 -13 -7 4 -28 8 -47 10 -19 1 -57 6 -85 12 -118 22 -131 23 -115 11z"/>
        <path d="M3508 5774 c-16 -8 -28 -22 -28 -30 0 -9 -9 -28 -20 -42 -21 -26 -21 -26 -1 -45 15 -16 34 -20 85 -21 37 -1 66 -4 67 -9 2 -22 -14 -66 -26 -71 -18 -6 -8 -46 12 -46 8 0 29 -11 46 -24 43 -33 82 -42 90 -22 5 12 21 16 59 16 l53 1 -23 19 c-26 21 -22 40 9 40 15 0 19 -7 19 -35 0 -31 4 -37 38 -51 20 -9 75 -20 122 -25 47 -5 95 -10 107 -11 32 -4 30 12 -4 31 -15 8 -48 27 -73 42 -25 14 -70 35 -100 46 -57 22 -77 43 -39 43 22 0 22 1 7 17 -16 15 -14 19 22 52 l40 36 -30 32 c-25 27 -35 31 -67 28 -21 -2 -50 2 -65 9 -16 8 -30 10 -35 5 -6 -6 -55 -12 -110 -16 -100 -6 -101 -6 -105 17 -4 30 -16 33 -50 14z m472 -283 c0 -5 12 -11 28 -13 16 -2 27 -9 27 -18 0 -11 -9 -14 -35 -12 -47 5 -84 52 -40 52 11 0 20 -4 20 -9z"/>
        <path d="M2897 5735 c-10 -7 -17 -20 -15 -29 2 -11 11 -8 36 15 24 22 28 29 15 29 -10 0 -26 -7 -36 -15z"/>
        <path d="M3125 5597 c-9 -5 -19 -6 -22 -4 -9 9 -84 -35 -80 -47 6 -19 74 -39 110 -32 37 7 90 52 84 70 -5 15 -72 25 -92 13z"/>
        <path d="M3966 5561 c15 -14 104 -50 104 -42 0 11 -75 51 -96 51 -11 0 -14 -3 -8 -9z"/>
        <path d="M4111 5480 c35 -31 49 -37 49 -21 0 12 -54 51 -70 51 -7 0 3 -13 21 -30z"/>
        <path d="M3809 5386 c17 -20 79 -48 91 -41 22 14 7 32 -35 43 -60 16 -70 16 -56 -2z"/>
        <path d="M4853 5219 c-29 -11 -34 -35 -31 -144 l3 -90 23 59 c36 93 47 142 36 164 -7 15 -14 18 -31 11z"/>
        <path d="M3096 5194 c-9 -24 -8 -28 22 -62 24 -27 36 -32 72 -32 35 0 50 -6 81 -35 69 -62 243 -134 295 -121 18 5 39 -1 69 -19 24 -14 48 -25 54 -25 18 0 12 65 -9 115 -11 26 -27 78 -36 116 -9 38 -20 72 -26 75 -15 9 -28 -16 -28 -56 0 -57 -11 -80 -43 -97 l-30 -15 -52 55 c-37 39 -65 59 -95 68 -34 10 -44 11 -48 1 -5 -17 -22 -15 -22 3 0 18 1 18 -39 4 -17 -6 -31 -17 -31 -25 0 -8 -7 -14 -15 -14 -8 0 -15 3 -15 8 0 4 -13 22 -29 40 -32 34 -65 42 -75 16z"/>
        <path d="M4657 5110 c-14 -20 -15 -66 -3 -111 10 -36 -16 -62 -54 -54 -29 6 -50 -8 -71 -46 -16 -32 -1 -39 36 -18 21 13 55 21 91 22 49 2 60 6 85 35 42 47 39 91 -8 148 -41 49 -55 53 -76 24z"/>
        <path d="M3203 4893 c-21 -3 -34 -11 -38 -24 -4 -10 -12 -19 -19 -19 -8 0 -19 -7 -26 -15 -19 -23 -71 -18 -111 10 -32 21 -39 22 -55 10 -22 -15 -21 -16 28 -38 26 -12 49 -15 77 -11 32 5 51 1 92 -20 29 -14 62 -26 74 -26 43 0 126 -32 159 -61 23 -20 52 -33 92 -40 74 -14 84 -22 84 -70 0 -32 4 -39 19 -39 11 0 21 -6 24 -12 7 -20 18 -3 28 41 5 25 5 50 -1 65 -9 25 -83 86 -104 86 -6 0 -29 17 -51 38 -54 51 -143 112 -164 111 -10 0 -11 -2 -3 -6 6 -2 12 -11 12 -19 0 -8 11 -19 24 -24 14 -5 30 -18 36 -30 10 -19 9 -20 -17 -14 -15 4 -39 15 -52 26 -14 10 -40 18 -62 18 -47 0 -52 19 -13 49 15 12 20 20 13 19 -8 0 -28 -3 -46 -5z"/>
        <path d="M4698 4864 c-32 -17 -37 -34 -10 -34 16 0 62 34 62 45 0 9 -25 4 -52 -11z"/>
        <path d="M4485 4710 c-6 -9 42 -46 50 -38 6 6 -24 48 -35 48 -5 0 -11 -4 -15 -10z"/>
        <path d="M1336 4688 c-3 -13 -6 -38 -6 -55 0 -36 -11 -40 -50 -18 -14 8 -37 14 -53 15 l-27 0 30 -42 c16 -22 30 -49 30 -59 0 -10 5 -21 10 -24 6 -3 9 -21 9 -38 -1 -18 -3 -24 -6 -14 -8 29 -20 19 -33 -29 -11 -37 -15 -43 -23 -29 -6 11 -6 25 1 39 10 23 5 84 -10 103 -5 7 -4 13 3 15 7 2 9 10 5 16 -4 7 -16 10 -27 7 -22 -7 -22 -5 -9 29 7 20 6 26 -4 26 -8 0 -17 -7 -20 -15 -9 -24 -52 9 -66 51 -6 19 -13 34 -15 34 -16 0 -63 -29 -79 -48 -14 -18 -27 -23 -51 -20 l-32 4 8 -41 c5 -26 3 -51 -6 -71 -16 -38 -41 -58 -30 -24 5 16 4 20 -4 15 -8 -5 -10 1 -5 19 4 16 2 26 -5 26 -6 0 -11 6 -11 14 0 26 -49 49 -94 42 -25 -4 -36 -3 -27 3 9 6 4 10 -20 14 -19 3 -52 10 -74 16 -79 20 -130 29 -134 25 -2 -2 4 -22 14 -44 10 -22 15 -43 12 -46 -10 -11 -97 19 -97 33 0 7 -11 13 -25 13 -14 0 -25 -4 -25 -9 0 -5 -27 -12 -60 -16 -33 -4 -60 -11 -60 -16 0 -17 -32 -9 -37 9 -4 15 -14 19 -51 18 -43 -1 -47 -3 -50 -28 l-3 -26 -42 19 c-23 10 -52 19 -64 19 l-23 0 0 -1355 0 -1356 37 7 c20 4 42 11 48 15 48 39 107 79 116 79 7 0 52 21 101 46 50 25 93 43 96 40 3 -3 -1 -6 -8 -6 -9 0 -7 -5 6 -16 10 -8 13 -13 6 -9 -22 11 -70 -5 -75 -26 -3 -11 -9 -19 -14 -18 -4 1 -21 1 -38 0 -23 -1 -27 -3 -15 -11 13 -9 13 -10 0 -11 -8 -1 -20 -1 -27 0 -6 1 -14 -3 -18 -9 -4 -6 6 -10 23 -10 38 0 114 39 120 62 3 13 9 15 21 9 18 -10 91 15 91 30 0 5 9 9 20 9 11 0 20 5 20 10 0 6 9 10 20 10 11 0 20 4 20 9 0 5 9 7 20 4 11 -3 20 0 20 6 0 6 9 11 20 11 13 0 18 5 14 15 -4 10 -13 13 -26 9 -14 -4 -18 -2 -14 5 4 6 18 11 32 11 14 0 23 -4 20 -8 -10 -17 11 -34 30 -24 11 5 40 13 67 16 26 4 47 12 47 18 0 6 -9 8 -20 5 -11 -3 -23 -1 -26 4 -3 5 9 9 25 9 17 0 31 -4 31 -9 0 -5 2 -15 5 -23 6 -15 -70 -53 -99 -49 -13 2 -17 -2 -13 -13 4 -10 -7 -21 -37 -35 -23 -12 -50 -21 -59 -21 -9 0 -17 -7 -17 -15 0 -9 -10 -15 -26 -15 -14 0 -33 -8 -42 -18 -10 -10 -57 -31 -107 -47 -49 -15 -117 -41 -151 -57 -33 -15 -66 -28 -72 -28 -7 0 -12 -4 -12 -10 0 -5 -6 -10 -13 -10 -7 0 -30 -19 -52 -41 -21 -23 -52 -46 -67 -51 -26 -9 -28 -13 -28 -69 0 -64 5 -67 62 -27 15 10 73 43 130 72 57 29 112 58 123 64 11 6 52 23 90 38 74 28 187 91 222 123 11 11 45 24 74 30 30 6 77 16 104 22 28 6 113 11 190 12 138 2 141 2 208 -30 37 -18 75 -39 84 -49 13 -12 18 -13 21 -4 3 7 -8 23 -24 36 -35 27 -147 84 -168 84 -8 0 -27 15 -41 34 -37 49 -96 77 -166 79 -41 1 -59 5 -59 14 0 7 1 13 3 13 23 0 128 -25 147 -35 14 -7 44 -18 68 -25 38 -10 201 -120 210 -142 9 -20 21 -2 36 55 33 121 36 127 60 127 13 0 67 9 121 20 53 12 99 19 101 17 3 -2 2 -12 -2 -21 -5 -12 -10 -14 -19 -6 -9 8 -15 8 -20 0 -3 -6 -10 -8 -15 -5 -5 3 -11 1 -15 -4 -3 -6 -12 -8 -20 -5 -8 3 -46 -4 -84 -16 -76 -23 -77 -24 -101 -133 -10 -45 -9 -51 16 -80 25 -30 26 -31 5 -38 -11 -5 -43 -30 -71 -56 -38 -35 -52 -57 -56 -85 -4 -21 -13 -43 -20 -49 -27 -22 -15 -36 37 -42 62 -8 92 6 136 61 31 39 82 72 109 72 7 0 20 12 28 28 15 27 16 27 22 5 8 -28 20 -29 27 -3 3 11 10 20 17 20 6 0 8 -4 5 -10 -3 -5 3 -15 15 -22 25 -16 28 -44 3 -32 -32 15 -100 7 -142 -17 -68 -38 -44 -53 39 -24 23 8 54 15 69 14 19 0 11 -6 -30 -20 -55 -19 -135 -82 -125 -98 3 -5 25 -12 48 -15 46 -7 111 16 138 48 7 9 19 16 26 16 19 0 158 100 182 130 10 14 22 42 25 62 3 21 17 52 30 70 44 60 44 88 0 46 -44 -41 -13 51 36 107 31 35 68 121 57 132 -3 4 -14 -4 -24 -17 -31 -43 -82 -125 -88 -142 -7 -20 -24 -24 -24 -6 0 18 -79 -92 -92 -129 -9 -25 -16 -32 -30 -27 -21 6 -24 -6 -6 -24 10 -10 10 -15 -2 -22 -19 -12 -67 -5 -85 14 -25 24 -18 99 15 184 17 41 28 82 25 90 -12 32 9 104 52 179 58 102 62 120 31 132 -31 12 -103 91 -175 194 -31 45 -61 87 -65 92 -27 35 -118 167 -118 172 0 3 -15 22 -32 43 -18 20 -67 81 -108 134 -41 54 -87 112 -102 129 -15 18 -28 35 -28 39 0 3 -18 26 -40 50 -22 23 -40 46 -40 50 0 4 -10 18 -22 30 -13 13 -42 47 -66 76 -24 29 -68 75 -98 103 -30 29 -54 55 -54 59 0 4 28 3 61 -2 42 -7 76 -6 106 1 44 12 164 5 193 -10 19 -9 280 -53 410 -68 274 -33 349 -42 390 -51 25 -5 92 -14 150 -20 58 -6 126 -13 151 -16 l46 -6 50 78 c27 44 52 84 54 90 6 15 182 277 197 293 8 8 31 37 52 65 20 28 63 78 94 111 30 33 59 70 62 83 3 12 11 22 16 22 5 0 36 26 69 57 65 62 63 55 38 156 -9 32 -29 53 -29 28 0 -5 -11 -22 -24 -37 -14 -16 -34 -40 -45 -54 -15 -19 -22 -22 -31 -14 -8 8 -8 14 -1 18 5 4 8 12 5 19 -2 7 7 19 21 27 14 7 25 16 25 19 0 3 13 21 30 39 28 32 31 62 6 62 -6 0 -19 -13 -29 -29 -9 -16 -28 -39 -42 -52 -13 -13 -25 -31 -25 -40 0 -8 -14 -25 -31 -38 -16 -12 -35 -34 -42 -49 -12 -28 -77 -112 -115 -150 -12 -12 -22 -28 -22 -36 0 -7 -7 -19 -15 -26 -8 -7 -15 -22 -15 -34 0 -24 -49 -90 -50 -66 0 8 7 28 16 45 14 27 43 164 64 305 4 30 11 75 16 99 6 39 5 44 -9 38 -28 -11 -19 19 9 32 19 8 24 16 19 29 -4 9 -12 29 -17 44 -6 16 -15 25 -21 21 -6 -4 -8 0 -4 10 4 11 2 14 -9 10 -7 -3 -14 -11 -14 -18 0 -6 -11 -24 -25 -39 -14 -15 -30 -49 -36 -74 -7 -26 -15 -57 -20 -70 -5 -13 -9 -32 -9 -44 0 -12 -3 -19 -6 -15 -8 8 15 155 33 201 8 22 22 51 32 65 10 14 22 37 26 50 7 22 5 23 -19 17 -35 -9 -93 -73 -108 -119 -6 -20 -18 -43 -26 -50 -13 -10 -14 -8 -7 13 11 35 34 81 56 109 25 32 24 51 -4 51 -26 0 -120 -93 -132 -130 -4 -14 -14 -34 -21 -45 -8 -11 -14 -31 -15 -45 -1 -46 -27 39 -28 93 -1 53 -6 56 -33 25 -26 -31 -32 -61 -18 -103 13 -38 7 -56 -11 -38 -7 7 -10 38 -7 81 3 60 7 73 28 91 20 16 22 22 11 30 -19 13 -50 2 -64 -23 -21 -39 -37 -91 -37 -126 0 -50 -11 -110 -20 -110 -15 0 -17 26 -9 107 8 83 28 138 58 160 15 10 14 12 -2 18 -29 12 -88 -5 -113 -32 -13 -14 -21 -29 -19 -33 8 -13 -24 -40 -40 -34 -9 4 -15 -4 -18 -23 l-4 -28 -2 27 c-1 20 -5 26 -16 22 -8 -4 -22 -1 -30 6 -12 10 -16 9 -21 -4 -3 -9 -13 -16 -20 -16 -26 0 -61 -119 -68 -232 -3 -60 -9 -81 -25 -97 l-21 -21 0 90 c0 88 10 130 65 279 9 24 14 50 11 57 -6 16 -46 6 -53 -12 -3 -8 -9 -14 -14 -14 -21 0 -169 -171 -169 -196 0 -27 -18 -14 -22 17 -5 34 28 91 106 183 34 41 43 46 79 46 31 0 38 3 29 12 -9 9 -32 8 -99 -2 -94 -14 -133 -27 -134 -44 0 -6 -16 -24 -36 -41 -34 -28 -36 -29 -50 -10 -8 11 -24 41 -35 68 -22 51 -51 63 -62 25z m-749 -160 c16 -18 14 -58 -2 -60 -11 -2 -55 59 -55 75 0 5 7 7 15 3 10 -3 15 1 16 12 0 14 2 14 6 2 3 -8 12 -23 20 -32z m1373 12 c0 -5 -4 -10 -10 -10 -5 0 -10 5 -10 10 0 6 5 10 10 10 6 0 10 -4 10 -10z m0 -72 c0 -11 4 -17 9 -14 5 3 11 -18 14 -47 4 -38 1 -55 -9 -63 -17 -14 -19 -35 -1 -29 9 4 11 -7 9 -40 -5 -58 -32 -64 -32 -7 0 20 -5 44 -10 52 -9 13 -11 13 -20 0 -5 -8 -8 -21 -5 -27 2 -7 0 -13 -4 -13 -14 0 -22 31 -28 108 -3 42 -1 72 5 72 5 0 7 12 4 27 -4 21 -2 25 12 20 9 -4 16 -1 16 5 0 6 9 3 20 -7 11 -10 20 -27 20 -37z m387 10 c-3 -8 -6 -5 -6 6 -1 11 2 17 5 13 3 -3 4 -12 1 -19z m-944 -33 c3 -16 0 -24 -7 -22 -14 4 -21 47 -8 47 5 0 12 -11 15 -25z m1024 -207 c-2 -18 -4 -4 -4 32 0 36 2 50 4 33 2 -18 2 -48 0 -65z m40 -290 c-3 -8 -6 -5 -6 6 -1 11 2 17 5 13 3 -3 4 -12 1 -19z m-1637 -1783 c0 -8 -4 -15 -10 -15 -5 0 -10 7 -10 15 0 8 5 15 10 15 6 0 10 -7 10 -15z m-130 1 c0 -9 -40 -13 -46 -5 -3 5 6 9 20 9 14 0 26 -2 26 -4z m-176 -41 c-7 -16 -24 -21 -24 -6 0 8 7 13 27 20 1 1 0 -6 -3 -14z m-44 -20 c0 -8 -9 -15 -21 -15 -11 0 -17 -4 -14 -10 3 -5 -4 -10 -16 -10 -19 0 -20 2 -8 16 11 13 37 28 57 33 1 1 2 -6 2 -14z m1044 -196 c-10 -21 -19 -28 -26 -21 -13 13 7 52 28 52 13 0 12 -4 -2 -31z m122 -116 c-10 -10 -19 5 -10 18 6 11 8 11 12 0 2 -7 1 -15 -2 -18z"/>
        <path d="M1902 4365 c0 -16 2 -22 5 -12 2 9 2 23 0 30 -3 6 -5 -1 -5 -18z"/>
        <path d="M1925 4361 c-3 -5 -1 -12 5 -16 5 -3 10 1 10 9 0 18 -6 21 -15 7z"/>
        <path d="M112 4679 c2 -6 8 -10 13 -10 5 0 11 4 13 10 2 6 -4 11 -13 11 -9 0 -15 -5 -13 -11z"/>
        <path d="M4630 4663 c0 -5 5 -15 10 -23 8 -12 10 -11 10 8 0 12 -4 22 -10 22 -5 0 -10 -3 -10 -7z"/>
        <path d="M2666 4638 c-9 -33 -8 -38 8 -38 16 0 31 34 21 50 -10 17 -22 11 -29 -12z"/>
        <path d="M3009 4643 c17 -33 75 -79 211 -169 74 -49 137 -92 138 -96 7 -15 52 -8 52 7 0 8 3 15 8 16 46 5 84 35 61 50 -8 4 -5 10 6 17 16 9 17 13 5 41 -20 48 -62 72 -154 87 -77 13 -164 30 -266 53 -66 15 -72 14 -61 -6z"/>
        <path d="M95 4630 c-8 -13 5 -13 25 0 13 8 13 10 -2 10 -9 0 -20 -4 -23 -10z"/>
        <path d="M2800 4614 c0 -9 -14 -33 -30 -53 -48 -57 -50 -60 -50 -71 0 -19 18 -10 61 30 24 22 46 40 50 40 14 0 21 41 9 55 -17 20 -40 19 -40 -1z"/>
        <path d="M4547 4582 c-9 -21 -22 -53 -28 -72 -14 -39 -58 -80 -103 -96 -17 -6 -61 -25 -98 -42 -66 -32 -227 -60 -238 -43 -3 5 -21 11 -42 15 -20 4 -39 13 -42 21 -9 26 -81 19 -112 -10 -15 -14 -23 -25 -19 -25 4 0 2 -7 -5 -15 -9 -10 -9 -15 -1 -15 22 0 10 -15 -21 -29 -77 -32 -98 -44 -93 -51 5 -9 -86 -28 -167 -35 -50 -4 -61 -1 -86 20 -17 14 -34 25 -40 25 -5 0 -12 9 -15 20 -3 12 -14 20 -29 21 -12 0 -32 3 -43 5 -11 3 -41 8 -67 11 -27 3 -48 9 -48 14 0 17 -29 9 -44 -13 -9 -12 -16 -18 -16 -12 0 5 -14 15 -32 22 -26 10 -33 9 -43 -5 -12 -16 -91 -42 -131 -43 -12 0 -24 7 -28 15 -6 16 -36 21 -36 6 0 -6 -39 -49 -87 -98 -98 -100 -190 -210 -214 -257 -10 -17 -29 -44 -43 -59 -15 -16 -24 -32 -21 -37 8 -12 -25 -50 -53 -61 -13 -5 -21 -13 -17 -18 3 -5 -6 -22 -19 -36 -14 -15 -22 -33 -19 -41 4 -10 -2 -17 -15 -21 -13 -3 -19 -10 -15 -19 3 -8 0 -14 -6 -14 -6 0 -14 -15 -19 -32 -5 -18 -14 -32 -21 -30 -6 1 -14 -11 -17 -28 -4 -16 -13 -30 -20 -30 -13 0 -18 -15 -17 -47 1 -7 -3 -11 -7 -8 -6 4 -29 -40 -68 -127 -2 -5 0 -8 5 -8 4 0 19 17 33 37 133 194 172 248 205 285 70 77 216 248 288 337 43 53 99 120 125 149 25 29 50 60 55 68 5 9 18 25 30 37 18 18 21 19 32 4 7 -10 19 -17 27 -17 9 0 44 -13 79 -30 58 -27 91 -37 126 -39 12 -1 33 -40 52 -100 15 -46 57 -100 87 -111 14 -6 28 -18 31 -27 8 -22 28 -43 41 -43 18 0 247 98 352 150 58 29 193 82 300 117 290 96 368 143 434 266 33 62 36 76 36 147 0 43 -4 81 -8 84 -5 3 -16 -12 -25 -32z m-6 -138 c12 -14 11 -16 -5 -13 -11 2 -21 10 -24 17 -5 17 13 15 29 -4z m-1143 -331 c-10 -2 -26 -2 -35 0 -10 3 -2 5 17 5 19 0 27 -2 18 -5z"/>
        <path d="M2630 4575 c-11 -14 -11 -18 -1 -25 8 -4 10 -13 7 -19 -4 -6 -5 -11 -2 -11 13 0 26 41 18 56 -8 14 -10 14 -22 -1z"/>
        <path d="M2833 4553 c-17 -6 -16 -33 1 -33 7 0 16 9 19 20 5 20 2 22 -20 13z"/>
        <path d="M2796 4504 c-8 -22 1 -31 16 -16 9 9 9 15 1 23 -7 7 -12 5 -17 -7z"/>
        <path d="M4676 4502 c-9 -15 12 -35 29 -28 14 5 15 9 5 21 -14 17 -26 19 -34 7z"/>
        <path d="M3145 4320 c-3 -5 1 -10 9 -10 9 0 16 5 16 10 0 6 -4 10 -9 10 -6 0 -13 -4 -16 -10z"/>
        <path d="M3006 4043 c-9 -32 -21 -75 -28 -95 -6 -20 -12 -54 -13 -75 -1 -21 -3 -39 -5 -40 -1 -2 -4 -15 -5 -30 -4 -36 -9 -55 -19 -71 -4 -7 -6 -14 -5 -15 80 -42 78 -41 100 -21 12 10 30 36 41 57 l19 39 -27 154 c-15 85 -31 154 -35 154 -4 0 -15 -26 -23 -57z"/>
        <path d="M2923 3993 c-21 -43 -36 -82 -35 -86 1 -5 -7 -11 -18 -14 -12 -3 -19 -11 -16 -18 2 -7 -1 -18 -7 -24 -6 -6 -12 -16 -13 -23 -3 -18 -31 -76 -59 -123 -23 -40 -61 -113 -77 -148 -4 -10 22 8 59 40 37 32 72 61 78 66 51 37 53 41 74 171 12 71 27 139 35 150 14 23 31 86 22 86 -2 0 -22 -35 -43 -77z"/>
        <path d="M3179 3918 c-19 -40 -48 -102 -66 -138 -17 -35 -30 -67 -28 -69 2 -2 15 -1 29 3 27 7 66 71 80 130 4 17 16 42 27 57 22 32 26 89 5 89 -7 0 -29 -32 -47 -72z"/>
        <path d="M4680 3859 c-25 -3 -43 -7 -40 -7 32 -10 167 -31 208 -33 29 -2 55 -6 58 -11 6 -10 24 -1 24 12 0 13 -59 30 -104 30 -23 0 -55 3 -71 8 -17 4 -50 5 -75 1z"/>
        <path d="M3232 3818 c-7 -24 -15 -49 -18 -55 -4 -9 4 -13 25 -13 29 0 31 2 31 38 0 21 -6 46 -13 56 -11 15 -14 12 -25 -26z"/>
        <path d="M3645 3640 c-60 -4 -119 -10 -130 -15 -36 -13 -89 -36 -151 -66 -33 -16 -64 -29 -69 -29 -5 0 -16 -6 -24 -13 -9 -7 -36 -19 -61 -26 -25 -7 -57 -19 -71 -27 -15 -8 -61 -19 -103 -25 -42 -6 -76 -15 -76 -19 0 -12 41 -19 78 -14 33 4 44 -9 17 -20 -8 -3 -15 -12 -15 -20 0 -20 86 13 240 92 151 77 244 112 296 111 l39 -1 -32 -14 c-18 -8 -33 -19 -33 -25 0 -7 -10 -9 -27 -5 -19 5 -24 4 -14 -3 11 -7 8 -10 -15 -14 l-29 -4 32 -2 c44 -2 164 43 246 92 55 33 65 43 50 48 -10 4 -22 7 -28 7 -5 -1 -59 -4 -120 -8z"/>
        <path d="M3760 3554 c-54 -46 -94 -72 -120 -79 -3 0 -33 -15 -67 -33 -34 -18 -69 -32 -76 -32 -8 0 -20 -7 -27 -15 -7 -8 -28 -18 -48 -21 -20 -4 -43 -13 -50 -21 -22 -21 -32 -15 -32 20 0 19 -3 36 -6 39 -3 3 -24 -5 -47 -18 -23 -13 -52 -24 -64 -24 -13 0 -23 -5 -23 -10 0 -8 -69 -46 -162 -88 -19 -9 -5 21 23 47 l31 30 -39 -2 c-30 -2 -46 -10 -75 -41 -42 -43 -45 -52 -24 -75 9 -10 11 -23 6 -36 -7 -17 -9 -17 -9 -2 -1 18 -31 24 -31 6 0 -23 -100 -186 -132 -215 -38 -34 -137 -89 -145 -80 -3 3 8 13 26 23 17 10 31 20 31 23 0 3 19 30 41 60 46 62 65 97 56 106 -5 6 -75 -45 -123 -91 -11 -11 -50 -45 -84 -75 -117 -101 -306 -298 -296 -308 10 -9 -15 -42 -32 -42 -16 -1 -52 -61 -52 -88 0 -7 -9 -12 -21 -12 -15 0 -19 -5 -15 -15 3 -8 1 -15 -4 -15 -6 0 -10 -20 -10 -44 0 -30 -5 -46 -15 -50 -8 -3 -15 -17 -15 -30 0 -14 -11 -42 -25 -62 -14 -20 -25 -43 -25 -50 0 -8 -7 -14 -16 -14 -14 0 -14 -3 -3 -16 10 -13 10 -17 -2 -25 -8 -5 -23 -9 -35 -9 -32 0 -87 -41 -109 -82 -11 -20 -17 -39 -14 -42 3 -3 24 2 47 10 38 16 43 16 68 0 20 -14 32 -15 52 -7 53 20 141 41 170 41 35 0 112 31 128 51 6 8 11 29 10 47 -1 20 4 32 12 32 7 0 19 18 28 40 9 22 29 51 45 64 16 14 29 28 29 31 0 4 6 21 14 38 44 97 56 133 56 162 0 19 5 35 12 37 11 4 13 16 17 94 1 26 8 34 45 53 52 25 170 139 217 208 18 26 44 59 57 73 35 38 55 81 54 117 -1 18 3 33 8 33 6 0 10 7 10 15 0 8 5 15 10 15 6 0 10 -4 10 -9 0 -16 72 -91 81 -85 14 8 10 -23 -7 -64 -16 -38 -74 -207 -74 -217 0 -3 6 -5 14 -5 30 0 146 163 146 204 0 10 5 14 10 11 6 -4 9 -12 8 -18 -2 -7 0 -13 5 -14 23 -8 37 2 55 40 11 24 27 49 36 56 11 10 13 18 6 31 -13 25 -13 26 8 26 9 1 24 3 32 5 11 3 14 -3 13 -18 -3 -27 22 -31 32 -5 3 9 6 19 5 21 -1 2 12 10 27 16 41 18 443 402 443 423 0 20 -12 13 -80 -44z"/>
        <path d="M3955 3600 c-3 -5 1 -10 10 -10 9 0 13 5 10 10 -3 6 -8 10 -10 10 -2 0 -7 -4 -10 -10z"/>
        <path d="M3890 3560 c-18 -16 -36 -30 -41 -30 -5 0 -9 -9 -9 -20 0 -18 3 -19 20 -10 11 6 20 14 20 18 0 4 14 15 30 24 17 9 30 24 30 33 0 23 -14 18 -50 -15z"/>
        <path d="M4560 3562 c0 -4 -25 -7 -56 -5 -32 1 -75 -4 -98 -12 -23 -7 -68 -15 -101 -18 -33 -4 -61 -11 -63 -17 -2 -5 -19 -10 -38 -10 -20 0 -60 -11 -90 -25 -30 -14 -58 -25 -62 -25 -4 0 -13 -9 -20 -20 -12 -19 -10 -20 43 -20 30 0 75 7 100 15 33 12 62 14 105 9 37 -4 60 -3 60 3 0 6 38 9 93 8 150 -3 252 7 252 25 0 10 -18 19 -50 26 -27 7 -40 13 -27 13 27 1 29 22 4 44 -19 17 -52 23 -52 9z"/>
        <path d="M4793 3450 c0 -25 2 -35 4 -22 2 12 2 32 0 45 -2 12 -4 2 -4 -23z"/>
        <path d="M2746 3413 c-8 -16 -35 -49 -61 -75 -26 -26 -58 -65 -72 -85 -14 -21 -41 -56 -60 -78 -168 -196 -188 -224 -136 -189 33 21 230 191 239 205 3 6 25 24 47 40 23 17 75 63 116 102 l74 72 -47 5 c-25 3 -51 11 -58 18 -18 18 -26 15 -42 -15z"/>
        <path d="M3895 3334 c-77 -19 -163 -62 -201 -98 -38 -38 -73 -100 -62 -112 12 -12 38 11 52 46 28 70 126 122 263 140 79 10 222 -11 537 -80 49 -10 125 -22 170 -25 59 -5 91 -13 116 -29 19 -13 52 -29 72 -36 21 -8 40 -22 44 -32 3 -10 10 -18 16 -18 5 0 8 -7 4 -15 -3 -10 1 -15 13 -15 47 0 171 -149 156 -187 -3 -10 -1 -13 9 -10 20 8 36 -13 36 -46 0 -26 1 -27 16 -12 15 14 18 14 33 0 10 -8 21 -15 24 -15 17 0 4 26 -36 73 -24 29 -55 70 -70 92 -44 66 -159 171 -251 230 -54 34 -67 38 -160 46 -123 10 -159 16 -411 75 -38 9 -81 18 -95 21 -35 8 -251 13 -275 7z"/>
        <path d="M3549 3176 c-30 -24 -56 -57 -79 -103 -30 -59 -92 -147 -126 -178 -16 -14 -74 -126 -74 -142 0 -9 14 -13 43 -13 39 0 48 6 119 76 59 58 84 92 104 138 14 33 35 79 45 102 10 23 19 51 19 63 0 12 5 32 11 43 8 16 8 24 -3 34 -12 12 -20 10 -59 -20z"/>
        <path d="M3755 3152 c-54 -18 -116 -62 -141 -101 -14 -20 -14 -25 -2 -37 12 -12 28 -11 114 7 141 30 199 33 289 16 95 -17 147 -13 138 12 -4 9 -3 13 2 9 4 -4 14 -3 21 3 10 8 11 16 3 31 -8 15 -13 17 -24 8 -11 -9 -18 -8 -30 4 -9 9 -24 16 -34 16 -9 0 -21 4 -27 10 -5 5 -46 12 -89 15 -72 4 -109 9 -155 20 -8 2 -38 -4 -65 -13z"/>
        <path d="M5350 3111 c0 -12 5 -21 10 -21 6 0 10 6 10 14 0 8 -4 18 -10 21 -5 3 -10 -3 -10 -14z"/>
        <path d="M3308 3103 c7 -3 16 -2 19 1 4 3 -2 6 -13 5 -11 0 -14 -3 -6 -6z"/>
        <path d="M4025 3000 c-9 -15 42 -60 79 -71 17 -5 46 -9 63 -9 22 0 33 -5 33 -14 0 -16 79 -55 153 -76 27 -7 51 -19 54 -27 3 -7 9 -13 13 -13 5 0 37 -13 72 -28 87 -40 116 -50 165 -57 70 -11 176 -70 268 -150 51 -44 79 -47 70 -6 -3 17 -2 32 4 36 15 9 14 45 -2 45 -7 0 -17 10 -22 23 -6 12 -21 23 -35 25 -14 2 -33 11 -44 20 -10 10 -19 15 -20 13 0 -2 -20 6 -43 18 -23 11 -51 21 -63 21 -11 0 -20 4 -20 10 0 15 -68 30 -172 37 -54 3 -98 10 -98 15 0 4 -17 8 -38 8 -22 0 -51 9 -72 23 -19 13 -51 29 -70 37 -19 7 -48 21 -65 30 -16 9 -51 23 -77 30 -27 7 -48 16 -48 19 0 15 -78 52 -85 41z"/>
        <path d="M3790 2982 c-19 -9 -62 -23 -94 -32 -33 -8 -61 -20 -63 -26 -7 -20 81 -27 129 -11 24 8 62 20 84 26 40 11 60 33 48 52 -8 14 -65 9 -104 -9z"/>
        <path d="M4290 2991 c8 -5 17 -8 20 -6 4 2 13 -5 20 -16 17 -23 43 -25 60 -4 17 20 15 21 -55 29 -39 4 -55 3 -45 -3z"/>
        <path d="M3920 2930 c0 -5 9 -10 21 -10 11 0 17 5 14 10 -3 6 -13 10 -21 10 -8 0 -14 -4 -14 -10z"/>
        <path d="M3844 2793 c-6 -4 -18 -29 -27 -55 l-16 -47 31 -16 c17 -8 43 -15 58 -15 15 0 33 -7 40 -15 7 -8 20 -15 28 -15 9 0 104 -43 212 -96 107 -53 205 -101 217 -107 13 -5 25 -18 29 -29 6 -19 19 -24 28 -9 9 13 46 1 46 -15 0 -8 7 -14 15 -14 8 0 15 -4 15 -10 0 -5 6 -10 14 -10 7 0 16 -9 19 -20 5 -20 47 -29 47 -10 0 16 19 11 37 -10 13 -14 30 -20 63 -20 55 0 66 -7 75 -43 4 -15 11 -27 15 -27 4 0 13 -13 19 -30 10 -29 41 -43 41 -18 0 9 3 9 11 1 6 -6 17 -10 23 -7 10 4 46 -68 46 -93 0 -18 40 -37 52 -25 9 9 26 100 31 164 1 15 8 33 15 40 17 17 15 45 -3 52 -8 3 -15 16 -15 28 0 29 -28 75 -72 119 -19 19 -38 42 -41 52 -4 10 -12 15 -17 12 -6 -4 -28 9 -49 28 -52 47 -78 60 -107 53 -17 -5 -26 -2 -30 8 -3 8 -12 12 -19 10 -7 -3 -23 -1 -34 6 -18 9 -21 8 -22 -7 0 -16 -2 -15 -10 3 -11 22 -122 84 -151 84 -10 0 -18 4 -18 9 0 5 -33 9 -74 9 -61 0 -79 4 -105 23 -26 19 -45 23 -132 26 -64 2 -112 8 -131 17 -35 18 -138 30 -154 19z"/>
        <path d="M5206 2782 c-3 -5 6 -31 19 -58 26 -51 33 -42 14 17 -14 41 -25 54 -33 41z"/>
        <path d="M1965 2670 c-3 -5 -1 -10 4 -10 6 0 11 5 11 10 0 6 -2 10 -4 10 -3 0 -8 -4 -11 -10z"/>
        <path d="M5250 2643 c0 -18 5 -33 10 -33 13 0 13 30 0 50 -7 11 -10 7 -10 -17z"/>
        <path d="M3870 2590 c0 -5 7 -10 15 -10 8 0 15 5 15 10 0 6 -7 10 -15 10 -8 0 -15 -4 -15 -10z"/>
        <path d="M5200 2570 c-2 -8 -4 -52 -6 -98 -1 -60 -7 -88 -18 -101 -9 -10 -16 -26 -16 -36 0 -17 1 -17 19 -1 35 31 51 144 31 221 -4 17 -9 23 -10 15z"/>
        <path d="M3915 2540 c4 -6 11 -8 16 -5 14 9 11 15 -7 15 -8 0 -12 -5 -9 -10z"/>
        <path d="M3992 2538 c-15 -15 -16 -28 -2 -28 6 0 10 6 10 14 0 8 6 17 13 19 6 3 7 6 2 6 -6 1 -16 -4 -23 -11z"/>
        <path d="M3830 2522 c0 -13 36 -115 48 -138 6 -10 20 -40 32 -66 12 -27 26 -48 31 -48 5 0 9 -7 9 -15 0 -14 20 -52 58 -110 7 -11 17 -32 23 -47 6 -16 15 -28 21 -28 5 0 7 -4 3 -9 -7 -13 30 -83 57 -107 11 -11 25 -30 30 -44 7 -20 11 -21 18 -10 11 17 3 59 -16 80 -7 8 -14 35 -17 60 -5 54 -19 91 -41 109 -9 7 -16 24 -16 38 0 13 -7 26 -17 30 -30 11 -58 45 -89 108 -16 33 -37 68 -46 79 -9 10 -20 33 -24 50 -9 42 -64 101 -64 68z"/>
        <path d="M4027 2504 c-8 -8 3 -34 14 -34 5 0 9 9 9 20 0 19 -11 26 -23 14z"/>
        <path d="M4080 2465 c0 -8 4 -15 9 -15 5 0 11 7 15 15 3 9 0 15 -9 15 -8 0 -15 -7 -15 -15z"/>
        <path d="M3522 2453 c5 -25 28 -28 28 -4 0 12 -6 21 -16 21 -9 0 -14 -7 -12 -17z"/>
        <path d="M3571 2384 c0 -11 3 -14 6 -6 3 7 2 16 -1 19 -3 4 -6 -2 -5 -13z"/>
        <path d="M3635 2370 c-3 -5 -1 -10 5 -10 7 0 9 -8 5 -21 -5 -16 -3 -20 6 -17 8 3 14 9 14 14 0 5 4 14 8 20 4 7 0 15 -9 18 -21 8 -22 8 -29 -4z"/>
        <path d="M3770 2340 c0 -5 4 -10 9 -10 6 0 13 5 16 10 3 6 -1 10 -9 10 -9 0 -16 -4 -16 -10z"/>
        <path d="M3750 2321 c0 -5 -8 -12 -17 -14 -14 -4 -12 -5 5 -6 13 -1 22 5 22 14 0 8 -2 15 -5 15 -3 0 -5 -4 -5 -9z"/>
        <path d="M3680 2287 c0 -8 9 -22 20 -32 11 -10 20 -22 20 -27 0 -14 -40 16 -46 34 -6 19 -34 25 -34 7 0 -6 14 -30 30 -54 17 -24 30 -48 30 -54 0 -6 14 -36 30 -66 17 -30 30 -66 30 -78 0 -13 4 -27 8 -32 5 -6 14 -28 20 -50 16 -54 40 -85 51 -66 13 21 24 -5 16 -40 -4 -19 -2 -38 8 -52 8 -13 20 -65 26 -117 7 -52 17 -126 23 -165 6 -38 12 -95 15 -125 4 -69 12 -102 21 -96 4 2 8 -19 8 -47 3 -91 23 -280 36 -332 7 -31 23 -61 40 -77 15 -15 28 -32 28 -37 0 -21 30 -10 46 16 9 16 25 40 36 56 10 15 14 27 8 27 -5 0 -10 5 -10 10 0 16 47 60 63 60 7 0 18 5 25 12 9 9 12 8 12 -4 0 -9 -6 -18 -12 -21 -10 -4 -10 -7 0 -18 10 -11 12 -10 12 4 0 10 8 17 20 17 11 0 20 6 20 14 0 8 12 28 26 45 21 25 25 38 20 64 -4 17 -11 79 -16 136 -6 61 -16 114 -25 127 -8 13 -15 37 -15 54 0 20 -5 30 -15 30 -8 0 -15 5 -15 10 0 6 5 10 10 10 15 0 12 51 -5 80 -8 14 -14 35 -15 48 0 12 -5 22 -12 22 -6 0 -8 3 -5 7 4 3 2 12 -4 20 -9 10 -8 13 5 13 9 0 16 5 16 10 0 6 -8 10 -17 8 -13 -2 -20 11 -31 57 -8 33 -21 63 -28 68 -7 4 -12 21 -12 37 1 22 -8 40 -30 62 -18 17 -32 35 -32 40 0 5 -4 6 -10 3 -6 -3 -10 4 -10 17 0 13 -7 32 -15 42 -8 10 -12 22 -10 26 2 4 -5 16 -15 28 -11 12 -20 31 -20 42 0 19 -4 21 -30 15 -31 -7 -43 8 -15 19 23 9 18 24 -14 41 -20 10 -32 25 -36 47 -7 30 -8 31 -22 12 -12 -16 -15 -17 -23 -4 -6 8 -7 29 -4 45 4 23 3 26 -5 15 -9 -13 -11 -13 -11 3 0 14 -9 17 -44 17 -25 0 -48 -4 -51 -10 -10 -17 -25 -11 -25 9 0 10 -7 22 -16 25 -22 8 -24 8 -24 -7z m94 -58 c-3 -5 -10 -7 -15 -3 -5 3 -7 10 -3 15 3 5 10 7 15 3 5 -3 7 -10 3 -15z m246 -251 c0 -13 -23 -5 -28 10 -2 7 2 10 12 6 9 -3 16 -11 16 -16z m134 -1024 c3 -8 2 -12 -4 -9 -6 3 -10 10 -10 16 0 14 7 11 14 -7z"/>
        <path d="M2849 2253 c-3 -66 3 -131 15 -178 8 -27 24 -102 36 -165 13 -63 30 -131 40 -150 10 -19 20 -62 24 -95 3 -33 12 -82 21 -109 8 -27 15 -67 15 -88 0 -22 5 -49 12 -61 6 -12 11 -37 9 -54 -2 -28 1 -33 18 -33 12 0 26 -9 33 -20 19 -30 28 -24 28 20 0 29 -4 40 -15 40 -18 0 -20 21 -4 37 15 15 79 -31 79 -57 0 -9 9 -29 20 -43 25 -31 40 -93 50 -199 1 -16 3 -19 7 -8 4 8 13 20 22 27 12 8 16 29 16 80 -1 37 4 71 10 75 6 5 6 18 -3 40 -8 21 -9 34 -2 36 18 6 9 86 -15 137 -13 27 -22 51 -20 53 2 2 16 -3 32 -12 35 -17 49 -59 58 -161 9 -111 -31 -269 -107 -415 -15 -30 -28 -60 -28 -66 0 -7 -4 -14 -8 -16 -5 -2 -19 -19 -33 -39 -29 -43 -105 -134 -136 -162 -13 -11 -23 -25 -23 -30 0 -6 -7 -17 -15 -26 -8 -9 -43 -47 -77 -86 -35 -38 -73 -79 -85 -91 -13 -12 -23 -26 -23 -33 0 -6 -6 -11 -13 -11 -8 0 -20 -11 -27 -25 -7 -14 -34 -44 -59 -68 -25 -24 -63 -64 -84 -88 -21 -24 -68 -77 -105 -118 -37 -40 -68 -77 -70 -82 -6 -15 275 -11 281 4 4 9 6 9 6 0 1 -10 34 -13 129 -13 l128 0 18 31 c15 26 16 33 5 40 -10 6 -11 9 -1 9 6 0 12 7 12 15 0 8 3 15 8 15 4 0 22 23 41 50 19 28 37 50 42 50 11 0 83 111 91 140 4 14 13 50 21 80 8 30 24 72 36 93 11 21 21 43 21 50 0 7 14 27 30 44 22 22 31 42 32 68 1 23 9 44 24 58 13 12 24 30 24 40 0 10 11 43 25 73 14 30 25 65 25 79 0 13 5 27 10 30 6 3 10 18 10 33 1 15 7 45 15 67 18 47 32 134 39 227 4 50 2 71 -9 81 -8 8 -17 28 -21 43 -4 16 -16 35 -26 42 -10 7 -18 23 -18 34 0 56 -56 294 -80 339 -5 9 -6 26 -3 38 4 17 2 20 -11 15 -20 -8 -21 5 -1 20 10 8 12 15 5 26 -9 13 -12 12 -25 -4 -11 -15 -15 -16 -15 -5 0 8 5 20 11 26 6 6 8 17 4 23 -6 9 -9 9 -16 -1 -4 -7 -11 -10 -15 -6 -4 4 1 13 11 21 10 7 15 18 11 24 -10 16 -36 15 -36 0 0 -7 -11 1 -25 17 -13 17 -31 37 -40 46 -8 9 -15 21 -15 27 0 7 -3 11 -7 10 -5 -2 -9 0 -10 5 -6 16 -2 19 12 7 8 -6 19 -9 25 -5 13 8 -46 85 -65 85 -7 0 -15 7 -19 15 -3 8 -13 15 -21 15 -9 0 -23 7 -32 16 -9 9 -28 14 -45 12 -17 -2 -33 3 -38 12 -8 12 -10 9 -10 -11 0 -21 8 -31 35 -44 30 -14 35 -20 29 -38 -4 -12 -7 -30 -6 -40 0 -9 -3 -15 -9 -12 -5 4 -9 -1 -9 -9 0 -8 5 -18 10 -21 6 -3 10 -1 10 4 0 6 11 11 25 11 18 0 25 -5 25 -19 0 -11 -6 -21 -12 -24 -16 -5 12 -1 32 5 8 3 12 3 8 1 -11 -7 -10 -33 1 -33 6 0 9 -12 8 -27 -2 -22 3 -29 21 -31 27 -4 29 -22 2 -22 -31 0 -24 -17 15 -36 19 -9 35 -23 35 -30 0 -8 11 -19 24 -24 30 -11 51 -46 35 -56 -15 -9 -4 -125 13 -135 17 -11 46 -95 38 -109 -5 -8 -10 -2 -14 18 -4 17 -15 32 -26 35 -10 3 -26 21 -34 41 -8 20 -20 36 -25 36 -6 0 -13 11 -17 24 -3 15 -11 23 -19 20 -7 -3 -21 8 -31 25 -10 17 -21 31 -25 31 -10 0 -30 61 -23 71 3 5 1 9 -5 9 -5 0 -11 -5 -13 -10 -2 -6 -23 17 -48 51 -53 72 -131 202 -125 207 8 9 25 -11 55 -63 17 -30 53 -77 80 -104 73 -74 127 -82 60 -9 -16 18 -30 37 -30 43 0 6 -11 21 -25 33 -14 12 -25 30 -25 41 0 10 -6 24 -14 30 -8 7 -18 26 -21 42 -4 16 -14 33 -23 38 -9 5 -33 26 -52 45 -19 20 -43 41 -52 47 -15 8 -18 5 -19 -18z m267 -96 c8 3 14 0 14 -6 0 -6 -4 -11 -9 -11 -5 0 -16 -3 -25 -6 -12 -5 -16 0 -16 17 0 17 3 20 11 12 6 -6 18 -9 25 -6z m91 -209 c-3 -8 -6 -5 -6 6 -1 11 2 17 5 13 3 -3 4 -12 1 -19z m-31 -355 c-3 -4 -17 -8 -29 -10 -17 -2 -19 -1 -7 7 17 11 47 14 36 3z"/>
        <path d="M4374 2240 c18 -90 19 -120 3 -143 -14 -22 -14 -25 4 -38 10 -7 19 -24 19 -37 0 -32 21 -23 33 14 6 16 15 32 21 36 6 4 4 9 -7 14 -9 3 -17 13 -17 21 0 10 6 13 16 9 9 -3 20 -6 25 -6 5 0 9 -5 9 -10 0 -6 16 -27 35 -47 36 -37 85 -132 85 -164 0 -11 9 -28 19 -38 11 -11 16 -21 12 -23 -4 -2 -11 -34 -14 -71 -5 -52 -3 -67 6 -64 11 3 27 79 29 132 0 11 4 49 8 85 5 36 5 85 2 110 -6 37 -11 46 -29 48 -14 2 -23 10 -23 20 0 18 -89 115 -118 131 -9 5 -34 8 -54 6 -25 -1 -38 2 -38 10 0 7 -8 19 -17 26 -15 13 -16 11 -9 -21z m46 -160 c0 -5 -4 -10 -10 -10 -5 0 -10 5 -10 10 0 6 5 10 10 10 6 0 10 -4 10 -10z"/>
        <path d="M3577 2253 c-3 -5 -8 -192 -12 -418 -4 -225 -10 -465 -13 -531 -6 -95 -4 -120 6 -117 17 7 15 -5 -8 -37 -12 -16 -37 -89 -56 -162 -35 -129 -55 -197 -66 -228 -3 -8 -23 -62 -43 -120 -55 -157 -93 -239 -154 -334 -17 -28 -31 -56 -31 -63 0 -7 -4 -13 -9 -13 -12 0 -71 -99 -71 -120 0 -10 -8 -25 -18 -32 -17 -13 -52 -62 -52 -73 0 -3 370 -5 821 -5 l822 0 -7 73 c-4 39 -12 76 -17 81 -11 12 -12 56 -1 56 23 0 128 209 137 275 4 28 22 77 40 110 19 34 39 82 46 108 6 26 24 64 40 84 16 19 29 45 30 57 2 62 29 195 45 228 29 56 46 123 42 164 -2 29 1 45 9 49 7 2 13 10 13 18 0 7 11 13 27 12 33 0 66 46 46 66 -10 10 -18 7 -37 -14 -14 -15 -33 -27 -43 -26 -11 0 -13 3 -5 6 6 2 12 11 12 19 0 8 6 14 14 14 8 0 18 5 22 11 4 8 -3 9 -25 4 -33 -7 -45 10 -15 22 8 3 20 16 25 29 6 17 16 24 34 24 23 0 25 3 19 28 -4 15 -18 42 -31 60 -19 25 -21 32 -9 32 23 0 20 17 -4 23 -25 7 -17 35 12 39 17 2 22 12 25 48 3 25 10 48 16 52 7 4 -1 6 -16 4 -27 -3 -51 -16 -29 -16 7 0 12 -6 12 -14 0 -9 -7 -12 -20 -9 -11 3 -27 -1 -36 -8 -33 -27 -201 -235 -208 -257 -8 -25 -324 -343 -366 -369 -14 -8 -45 -42 -70 -74 -25 -32 -67 -75 -95 -96 -51 -38 -193 -178 -255 -252 -38 -45 -63 -64 -97 -75 -19 -6 -23 -4 -23 16 2 123 -14 397 -25 413 -7 12 -15 77 -19 155 -3 74 -11 167 -16 205 -6 39 -13 100 -15 138 -3 46 -12 81 -29 111 -13 23 -30 69 -37 101 -7 32 -23 69 -35 82 -14 15 -24 43 -29 80 -6 48 -46 141 -77 180 -5 6 -11 22 -12 35 -2 13 -7 31 -11 41 -4 9 -4 24 -1 32 3 9 -1 18 -9 21 -8 4 -15 14 -15 23 0 28 -32 52 -43 34z m185 -671 c-7 -2 -12 -10 -12 -18 0 -8 -9 -31 -20 -51 -11 -21 -20 -48 -20 -60 0 -13 -4 -23 -8 -23 -5 0 -16 -19 -27 -42 -49 -113 -87 -189 -92 -184 -5 4 53 136 88 198 5 10 9 22 9 28 0 25 62 170 71 165 5 -4 9 0 10 7 0 9 2 9 6 -1 3 -8 1 -17 -5 -19z m1280 -177 c-5 -27 -16 -32 -28 -13 -4 6 1 17 11 25 24 17 23 17 17 -12z m-81 -258 c-13 -13 -26 -3 -16 12 3 6 11 8 17 5 6 -4 6 -10 -1 -17z m44 4 c3 -5 1 -12 -4 -15 -5 -3 -11 1 -15 9 -6 16 9 21 19 6z m-1214 -275 c-12 -12 -21 -30 -21 -38 0 -9 -6 -23 -12 -30 -18 -18 -44 -76 -52 -115 -4 -18 -12 -35 -17 -38 -5 -4 -9 -17 -9 -30 0 -13 -5 -35 -11 -49 -9 -20 -9 -29 2 -42 12 -15 10 -16 -29 -9 -42 7 -42 7 -42 -24 0 -30 14 -43 22 -19 4 12 38 4 38 -9 0 -4 -22 -23 -49 -42 -27 -18 -60 -44 -72 -57 -12 -13 -27 -24 -33 -24 -6 0 -23 -10 -39 -23 -120 -97 -252 -184 -218 -143 7 9 20 18 29 21 10 3 25 19 35 36 9 17 26 33 37 36 11 3 17 9 14 14 -3 5 4 18 15 30 11 12 28 44 38 72 10 27 24 52 30 54 7 3 13 16 13 29 0 13 5 24 12 24 16 0 53 44 86 100 14 25 35 56 48 70 24 27 104 156 104 167 0 4 19 26 43 49 34 34 44 39 50 27 6 -10 2 -22 -12 -37z m69 -330 c0 -2 -7 -7 -16 -10 -8 -3 -12 -2 -9 4 6 10 25 14 25 6z m-160 -46 c0 -5 -4 -10 -10 -10 -5 0 -10 5 -10 10 0 6 5 10 10 10 6 0 10 -4 10 -10z"/>
        <path d="M3570 490 c0 -5 5 -10 10 -10 6 0 10 5 10 10 0 6 -4 10 -10 10 -5 0 -10 -4 -10 -10z"/>
        <path d="M5260 2204 c0 -3 12 -22 26 -42 l26 -37 -7 30 c-4 16 -11 36 -17 42 -11 13 -28 18 -28 7z"/>
        <path d="M3006 2171 c-4 -7 -5 -15 -2 -18 9 -9 19 4 14 18 -4 11 -6 11 -12 0z"/>
        <path d="M4185 2147 c-16 -54 0 -178 30 -224 8 -12 15 -31 15 -41 0 -10 7 -27 15 -38 8 -10 15 -26 15 -34 1 -49 60 -51 60 -2 0 15 6 45 14 66 12 33 12 45 1 70 -8 17 -16 42 -19 56 -3 14 -23 45 -46 70 -22 24 -42 52 -45 61 -7 22 -34 33 -40 16z"/>
        <path d="M4270 2130 c6 -11 13 -20 15 -20 3 0 5 9 5 20 0 11 -7 20 -15 20 -13 0 -14 -4 -5 -20z"/>
        <path d="M5280 2061 c0 -4 -27 -41 -60 -82 -33 -40 -60 -78 -60 -83 0 -12 42 34 88 97 51 69 55 77 43 77 -6 0 -11 -4 -11 -9z"/>
        <path d="M1957 2022 c8 -5 9 -13 3 -22 -16 -24 -11 -29 15 -17 30 14 31 23 6 37 -23 12 -42 14 -24 2z"/>
        <path d="M167 1943 c-25 -4 -27 -7 -15 -21 11 -13 11 -15 -5 -9 -21 8 -49 -2 -41 -14 10 -17 51 -9 77 14 26 22 35 39 20 36 -5 -1 -21 -4 -36 -6z"/>
        <path d="M5202 1865 c-72 -74 -95 -105 -77 -105 9 0 59 34 67 45 5 6 8 6 8 0 1 -20 79 79 86 107 3 16 4 31 2 33 -2 3 -41 -33 -86 -80z"/>
        <path d="M1172 1907 c-18 -7 -36 -17 -40 -23 -13 -20 -142 -43 -142 -26 0 16 -40 21 -54 6 -8 -8 -26 -14 -40 -14 -14 0 -28 -5 -31 -11 -4 -5 -18 -15 -32 -20 -16 -6 -23 -14 -19 -24 4 -11 -1 -15 -18 -15 -14 0 -31 -3 -40 -6 -11 -4 -16 -1 -16 10 0 9 7 16 15 16 40 0 1 53 -47 64 -16 3 -39 9 -54 12 -23 6 -25 4 -19 -22 3 -16 2 -23 -1 -16 -3 6 -18 11 -32 11 -19 -1 -21 -3 -9 -6 18 -5 18 -5 0 -19 -10 -7 -26 -14 -37 -14 -10 0 -31 -10 -46 -22 -16 -13 -58 -41 -94 -63 -36 -22 -66 -43 -66 -47 0 -5 -6 -8 -14 -8 -8 0 -16 -7 -20 -15 -3 -8 -11 -15 -18 -15 -7 0 -31 -16 -53 -36 -22 -19 -59 -47 -82 -61 -24 -14 -43 -29 -43 -35 0 -6 -6 -8 -13 -5 -7 2 -30 -13 -52 -34 -22 -22 -43 -39 -47 -39 -5 0 -8 -18 -8 -40 0 -22 2 -40 5 -40 11 0 63 27 91 47 17 13 36 23 43 23 7 0 46 20 87 45 40 25 78 45 84 45 6 0 15 12 20 26 8 19 15 24 27 19 21 -7 110 34 118 55 3 10 19 15 52 15 27 0 104 10 173 22 69 13 170 25 225 28 129 8 134 9 170 42 17 16 52 45 78 66 46 37 92 110 81 128 -7 12 -42 10 -82 -4z"/>
        <path d="M57 1878 c-15 -5 -25 -13 -22 -18 8 -12 55 1 55 16 0 8 -1 14 -2 13 -2 0 -15 -5 -31 -11z"/>
        <path d="M4465 1870 c-3 -5 -1 -10 4 -10 6 0 11 5 11 10 0 6 -2 10 -4 10 -3 0 -8 -4 -11 -10z"/>
        <path d="M4747 1841 c-4 -20 -3 -39 3 -45 5 -5 10 -18 10 -28 0 -10 4 -18 10 -18 5 0 7 6 4 14 -3 8 -9 36 -13 62 l-7 49 -7 -34z"/>
        <path d="M3385 1850 c3 -5 13 -10 21 -10 8 0 14 5 14 10 0 6 -9 10 -21 10 -11 0 -17 -4 -14 -10z"/>
        <path d="M0 1840 c0 -5 5 -10 10 -10 6 0 10 5 10 10 0 6 -4 10 -10 10 -5 0 -10 -4 -10 -10z"/>
        <path d="M4432 1818 c-17 -17 -15 -58 2 -58 18 0 30 35 19 55 -7 12 -12 12 -21 3z"/>
        <path d="M3152 1799 c2 -7 10 -15 17 -17 8 -3 12 1 9 9 -2 7 -10 15 -17 17 -8 3 -12 -1 -9 -9z"/>
        <path d="M2415 1740 c-3 -5 3 -10 14 -10 12 0 21 5 21 10 0 6 -6 10 -14 10 -8 0 -18 -4 -21 -10z"/>
        <path d="M3463 1735 c-3 -9 -3 -18 0 -21 9 -9 27 6 27 22 0 19 -19 18 -27 -1z"/>
        <path d="M2545 1680 c-3 -5 -1 -10 4 -10 6 0 11 5 11 10 0 6 -2 10 -4 10 -3 0 -8 -4 -11 -10z"/>
        <path d="M3478 1667 c6 -7 10 -25 9 -40 -1 -14 3 -26 8 -26 6 -1 10 17 11 39 1 33 -2 40 -19 40 -15 0 -17 -3 -9 -13z"/>
        <path d="M69 1625 c-19 -14 -42 -28 -52 -31 -11 -4 -17 -15 -15 -28 2 -11 8 -19 13 -16 6 3 9 8 7 13 -1 4 7 7 18 7 11 0 20 5 20 11 0 5 5 7 12 3 8 -5 9 -2 5 10 -4 10 -3 15 3 11 6 -3 13 0 16 9 3 8 12 12 20 9 10 -4 12 0 8 11 -8 21 -15 20 -55 -9z"/>
        <path d="M4800 1621 c0 -5 6 -12 13 -14 9 -4 8 -8 -3 -17 -12 -9 -11 -10 8 -5 18 5 22 2 22 -15 0 -16 5 -21 23 -18 43 6 7 78 -40 78 -12 0 -23 -4 -23 -9z"/>
        <path d="M1191 1597 c-14 -17 -4 -27 25 -27 13 0 25 -4 29 -10 3 -5 40 -8 83 -7 61 2 77 5 80 18 4 22 -76 47 -90 27 -7 -10 -11 -10 -15 0 -7 17 -97 16 -112 -1z"/>
        <path d="M880 1570 c0 -12 7 -20 17 -20 14 0 14 -3 5 -12 -10 -10 -15 -10 -21 1 -11 17 -75 11 -175 -17 -69 -19 -96 -40 -96 -74 0 -16 -17 -23 -42 -19 -5 0 -8 -9 -8 -22 0 -16 -13 -33 -40 -53 -34 -24 -40 -34 -37 -57 2 -19 -2 -31 -13 -37 -12 -6 -15 -18 -12 -39 4 -26 1 -31 -17 -31 -26 0 -27 -9 -4 -25 16 -12 16 -15 2 -32 -9 -10 -14 -23 -12 -30 2 -6 -5 -17 -17 -23 -17 -9 -19 -14 -9 -26 9 -11 8 -19 -5 -39 -9 -13 -16 -34 -16 -46 0 -18 -5 -21 -30 -17 -33 5 -41 -11 -10 -19 18 -5 19 -11 14 -42 -4 -20 -14 -46 -22 -59 -8 -12 -12 -33 -10 -47 3 -14 -3 -36 -13 -52 -11 -15 -19 -38 -19 -50 0 -12 -5 -25 -10 -28 -6 -4 -8 -16 -5 -27 4 -11 1 -27 -8 -36 -8 -9 -15 -24 -15 -32 -3 -38 -53 -239 -71 -283 -6 -16 -9 -32 -6 -37 3 -5 1 -11 -4 -15 -6 -3 -13 -33 -17 -66 -4 -34 -12 -66 -19 -72 -9 -8 -10 -19 -4 -36 6 -15 6 -28 -2 -37 -10 -12 88 -14 640 -14 l651 0 0 25 c0 22 4 24 33 21 24 -2 33 -9 35 -25 l3 -21 354 0 353 1 4 40 c3 35 1 40 -15 35 -23 -6 -47 2 -47 16 0 6 12 8 27 5 35 -7 72 11 52 24 -12 8 -12 11 1 19 13 8 12 10 -2 10 -10 0 -18 4 -18 9 0 18 20 62 34 76 11 12 15 7 27 -28 7 -23 18 -45 24 -49 5 -4 1 -8 -11 -8 -12 0 -24 -7 -28 -15 -4 -10 1 -15 15 -15 28 0 71 -30 65 -46 -3 -8 0 -11 10 -7 8 3 14 19 14 40 0 28 -3 33 -13 25 -7 -6 -18 -7 -26 -3 -11 7 -9 13 9 31 16 16 19 25 11 33 -18 18 -12 50 12 74 30 28 55 17 37 -17 -14 -26 -8 -34 19 -25 24 7 26 27 10 91 -9 34 -9 47 1 59 10 12 10 15 -1 15 -9 0 -6 8 8 22 19 18 24 19 38 8 19 -15 20 -14 28 25 4 17 4 25 1 18 -8 -18 -34 -4 -34 18 0 10 5 20 10 20 6 1 14 2 19 3 20 2 23 16 7 31 -17 18 -23 60 -6 50 6 -3 10 -13 10 -20 0 -9 6 -12 15 -9 11 5 13 2 9 -10 -3 -9 -3 -23 0 -32 11 -30 44 12 48 60 3 40 4 41 43 46 l40 6 -44 5 c-36 4 -45 2 -49 -13 -5 -22 -16 -23 -32 -3 -10 12 -9 15 5 15 12 0 16 6 12 20 -3 11 1 23 8 28 6 4 18 25 25 47 13 39 13 39 24 16 8 -18 8 -25 -2 -29 -29 -9 4 -58 44 -65 10 -1 25 -6 32 -10 6 -5 17 -5 22 -2 17 11 11 37 -10 42 -27 7 -25 18 4 19 16 1 26 -5 29 -17 6 -24 40 -26 35 -3 -2 14 -13 23 -47 41 -1 1 0 6 3 12 4 7 15 7 31 1 20 -7 27 -5 39 11 8 12 19 18 25 15 17 -11 24 15 22 82 -2 57 0 64 15 58 14 -5 15 -1 9 31 -8 45 -10 47 -28 40 -10 -4 -13 -15 -9 -34 5 -25 3 -26 -11 -15 -12 10 -13 20 -6 45 11 39 11 47 1 47 -4 0 -13 -15 -21 -32 l-13 -33 -16 45 c-8 25 -17 40 -19 34 -6 -19 -61 6 -68 30 -4 13 -8 16 -12 9 -7 -20 -19 -15 -31 12 -6 14 -16 25 -22 25 -15 0 -12 -37 5 -54 8 -8 15 -21 15 -30 0 -8 7 -19 16 -24 11 -6 15 -17 11 -32 -3 -12 -3 -19 0 -16 4 3 12 1 19 -5 8 -7 14 -7 19 1 3 5 1 10 -6 10 -7 0 -10 2 -7 5 3 3 13 3 22 -1 20 -8 13 -37 -15 -65 -24 -24 -24 -49 0 -49 12 0 20 -9 23 -25 4 -16 1 -25 -8 -25 -7 0 -15 -6 -18 -12 -4 -7 -4 -3 -2 10 3 14 -1 22 -10 22 -8 0 -14 7 -14 15 0 17 -41 30 -69 22 -13 -3 -18 0 -15 8 3 7 14 15 25 18 23 6 26 42 3 51 -11 4 -14 14 -9 35 4 21 1 35 -12 50 -9 12 -20 21 -23 21 -3 0 -3 -22 -2 -50 2 -27 8 -50 13 -50 5 0 9 -4 9 -9 0 -5 -8 -8 -17 -7 -11 2 -23 19 -31 42 -7 21 -19 45 -27 53 -11 11 -15 10 -24 -8 -16 -30 -37 -26 -53 9 -7 17 -16 30 -19 30 -15 0 -18 -34 -4 -49 24 -28 25 -121 0 -121 -21 0 -25 27 -25 163 -1 50 -4 68 -13 64 -19 -7 -57 11 -57 27 0 7 -7 16 -15 20 -12 4 -15 -1 -13 -26 2 -24 9 -34 30 -42 25 -9 33 -24 29 -50 -1 -4 3 -14 9 -21 8 -10 8 -19 0 -34 -7 -14 -7 -21 0 -21 13 0 13 -47 0 -55 -6 -4 -10 5 -10 20 0 33 -18 67 -31 59 -6 -3 -17 2 -24 12 -8 11 -15 14 -15 7 0 -24 13 -43 30 -43 23 0 36 -36 21 -54 -9 -11 -22 -12 -54 -4 -45 10 -77 31 -40 26 12 -2 22 2 22 7 1 6 -8 10 -19 10 -10 0 -22 4 -26 8 -4 4 3 7 15 7 12 0 19 4 16 10 -9 15 -19 12 -43 -10 l-22 -21 0 26 c0 14 5 25 10 25 6 0 10 8 9 18 0 9 -3 12 -5 6 -3 -8 -16 -8 -47 0 -49 13 -69 29 -65 53 2 12 -3 18 -17 18 -11 0 -20 -7 -20 -15 -1 -14 -6 -14 -48 -3 -13 4 -16 1 -11 -11 3 -9 11 -16 18 -17 19 -1 -27 -18 -52 -18 -19 -1 -22 4 -20 26 2 20 -4 30 -27 44 l-31 19 0 -35 c0 -19 3 -35 8 -35 4 0 5 -7 2 -15 -3 -8 -11 -13 -17 -12 -6 1 -12 -6 -15 -15 -2 -12 3 -17 20 -16 13 1 28 5 34 10 6 5 18 0 29 -12 17 -19 17 -20 0 -20 -11 0 -15 -5 -11 -16 3 -9 6 -18 6 -20 0 -2 7 -4 15 -4 8 0 17 12 21 28 10 47 11 48 22 20 15 -37 1 -84 -24 -80 -26 5 -54 27 -74 57 -15 23 -18 24 -30 10 -12 -14 -15 -13 -36 6 -13 12 -26 20 -29 17 -3 -2 -1 -38 4 -79 7 -52 6 -76 -1 -80 -16 -10 15 -39 41 -39 29 0 26 -14 -4 -28 -28 -13 -34 -32 -9 -32 8 0 12 -4 9 -10 -4 -6 -13 -5 -25 3 -16 9 -23 9 -37 -6 -13 -13 -14 -20 -5 -29 18 -18 16 -44 -2 -29 -9 7 -17 8 -20 3 -3 -6 1 -12 9 -16 17 -6 20 -39 5 -65 -6 -12 -5 -29 3 -50 10 -28 9 -33 -10 -46 -12 -9 -29 -22 -37 -30 -8 -8 -17 -11 -20 -6 -3 5 -14 7 -25 4 -11 -3 -21 2 -25 12 -10 28 3 37 47 30 35 -6 39 -5 34 10 -4 9 -7 18 -7 21 0 2 -20 1 -45 -3 -51 -7 -60 7 -23 37 19 15 20 20 9 34 -7 9 -21 16 -30 16 -9 0 -22 5 -29 12 -8 8 -10 3 -5 -25 5 -33 4 -35 -16 -30 -16 4 -23 -1 -31 -21 -10 -28 -28 -34 -36 -12 -9 24 15 58 37 51 13 -5 19 -2 19 10 0 19 -23 45 -39 45 -6 0 -11 5 -11 10 0 6 -11 10 -25 10 -30 0 -32 11 -5 28 17 10 21 10 26 -3 4 -8 12 -15 20 -15 8 0 14 -4 14 -10 0 -17 17 -11 49 17 17 15 31 36 31 46 0 16 -2 16 -22 -3 -26 -24 -32 -25 -48 -5 -9 11 -28 15 -61 14 -27 -2 -52 0 -56 4 -3 4 15 7 40 7 34 0 47 4 47 14 0 10 9 14 27 13 22 -2 29 3 31 21 3 17 10 22 32 22 16 0 30 -5 32 -12 2 -6 10 -8 16 -4 18 11 6 23 -31 30 -20 4 -48 22 -71 47 -27 28 -42 37 -49 30 -18 -18 -35 -12 -40 12 l-4 22 -2 -22 c-1 -17 -7 -23 -25 -23 -13 0 -26 -7 -30 -15 -3 -8 -17 -15 -31 -15 -27 0 -32 -9 -13 -28 10 -10 10 -15 1 -20 -7 -5 -9 -21 -4 -47 8 -45 4 -75 -10 -75 -5 0 -9 8 -9 18 0 10 -6 27 -14 37 -13 18 -15 18 -30 2 -10 -9 -13 -17 -7 -17 6 0 11 -18 11 -40 0 -25 -5 -40 -12 -40 -9 0 -8 -5 2 -15 12 -11 24 -12 54 -5 43 9 65 -5 66 -44 0 -15 -3 -16 -14 -7 -11 9 -15 8 -20 -4 -3 -9 -2 -13 4 -10 5 3 12 -5 16 -19 5 -22 10 -24 35 -19 25 5 29 3 29 -18 0 -20 -5 -24 -32 -23 -18 0 -34 6 -36 12 -2 7 -15 9 -31 6 -35 -7 -60 18 -41 41 10 12 10 18 0 30 -21 25 -47 18 -59 -16 -10 -30 -40 -37 -33 -8 4 14 4 24 0 69 -5 67 2 120 17 120 17 0 85 63 85 78 0 6 3 17 6 26 8 20 -23 21 -49 1 -11 -7 -25 -11 -33 -8 -8 3 -17 -2 -20 -11 -6 -15 -9 -15 -30 -1 -13 8 -31 15 -41 15 -16 1 -16 2 -3 10 9 5 32 7 53 6 29 -3 38 1 43 16 4 14 13 19 28 16 21 -4 22 -2 18 70 -2 54 0 77 10 83 9 6 5 9 -13 9 -14 0 -33 -8 -43 -19 -15 -16 -15 -19 -1 -31 8 -7 15 -21 15 -32 0 -10 7 -21 15 -24 8 -4 15 -9 15 -13 0 -12 -46 -6 -63 8 -13 10 -17 10 -17 1 0 -8 -8 -10 -24 -6 -20 5 -28 0 -43 -24 -17 -30 -33 -39 -33 -20 0 6 5 10 10 10 6 0 10 9 10 20 0 21 -24 28 -35 10 -3 -5 -11 -10 -16 -10 -5 0 -3 10 5 23 13 19 13 27 1 55 -8 17 -21 32 -29 32 -8 0 -21 3 -30 6 -11 4 -16 1 -16 -10 0 -9 8 -16 20 -16 42 0 9 -52 -41 -62 -13 -3 -31 -9 -40 -12 -19 -8 -36 23 -19 34 14 9 18 64 5 65 -5 0 -22 12 -36 27 -19 19 -33 25 -49 21 -17 -4 -21 -2 -18 8 3 8 14 14 25 14 31 0 33 6 24 63 -4 29 -5 52 -1 52 12 0 19 26 13 48 -3 14 -11 19 -21 15 -12 -3 -13 -2 -4 4 21 15 62 76 57 84 -3 4 4 10 15 14 11 3 20 12 20 19 0 7 11 23 24 35 14 13 26 33 28 45 3 18 9 21 40 18 39 -3 109 30 89 42 -6 4 -11 11 -11 17 0 14 22 11 41 -7 10 -9 25 -14 34 -10 23 8 9 26 -22 26 -16 0 -27 7 -30 20 -6 23 -19 26 -26 8 -4 -10 -7 -10 -14 -1 -7 10 -13 8 -26 -7 -20 -24 -62 -26 -84 -4 -10 9 -29 14 -49 12 -18 -1 -36 1 -40 5 -13 13 -24 7 -24 -13z m-12 -558 c2 -7 -3 -12 -12 -12 -9 0 -16 7 -16 16 0 17 22 14 28 -4z m1170 -9 c0 -15 5 -29 11 -31 6 -2 11 -8 11 -14 0 -7 -5 -6 -14 1 -7 6 -21 9 -30 5 -19 -7 -20 3 -3 39 15 34 25 34 25 0z m439 -55 c-3 -8 -6 -5 -6 6 -1 11 2 17 5 13 3 -3 4 -12 1 -19z m-27 -22 c0 -11 -19 -15 -25 -6 -3 5 1 10 9 10 9 0 16 -2 16 -4z m-385 -36 c0 -12 -8 -28 -17 -34 -21 -13 -36 0 -20 16 7 7 12 20 12 31 0 10 5 17 13 15 6 -3 12 -15 12 -28z m-1037 -3 c2 -10 -3 -17 -12 -17 -10 0 -16 9 -16 21 0 24 23 21 28 -4z m1130 -4 c-2 -14 3 -17 25 -15 26 3 28 1 22 -18 -9 -28 -9 -82 0 -109 3 -12 2 -21 -3 -21 -5 0 -13 16 -16 35 -4 19 -12 35 -18 35 -6 0 -8 10 -4 24 4 15 1 28 -6 33 -7 4 -19 18 -26 31 -11 20 -10 22 8 22 14 0 20 -6 18 -17z m576 -43 c-5 -5 -17 2 -27 16 -15 21 -16 24 -2 24 8 0 15 6 16 13 0 6 5 -1 11 -16 6 -16 6 -32 2 -37z m-884 25 c0 -18 -4 -23 -15 -19 -25 10 -19 33 13 43 1 1 2 -10 2 -24z m611 -8 c-9 -9 -14 -8 -21 3 -7 11 -4 17 8 21 21 8 29 -8 13 -24z m96 27 c-3 -3 -12 -4 -19 -1 -8 3 -5 6 6 6 11 1 17 -2 13 -5z m-640 -51 c-3 -10 -5 -4 -5 12 0 17 2 24 5 18 2 -7 2 -21 0 -30z m381 -3 c1 -28 -3 -40 -14 -40 -16 0 -17 5 -8 49 9 44 22 39 22 -9z m75 11 c20 -12 37 -29 37 -37 0 -19 -17 -18 -28 2 -5 9 -15 14 -23 12 -15 -5 -38 19 -39 40 0 16 2 15 53 -17z m-933 -21 c0 -13 -5 -18 -15 -14 -8 4 -15 12 -15 20 0 8 7 14 15 14 8 0 15 -9 15 -20z m-373 -26 c-3 -3 -16 -4 -29 -2 l-23 5 25 10 c23 10 41 1 27 -13z m1407 -9 c-6 -16 -24 -21 -24 -7 0 11 11 22 21 22 5 0 6 -7 3 -15z m67 5 c10 -6 19 -21 19 -33 0 -12 -4 -17 -8 -12 -4 6 -20 16 -36 23 -24 11 -27 15 -15 23 18 11 17 11 40 -1z m-1075 -20 c0 -13 -9 -21 -29 -26 -34 -7 -51 4 -18 13 13 3 20 11 17 19 -3 9 1 14 12 14 11 0 18 -8 18 -20z m494 10 c0 -5 -5 -10 -11 -10 -5 0 -7 5 -4 10 3 6 8 10 11 10 2 0 4 -4 4 -10z m465 -10 c3 -6 -1 -13 -10 -16 -19 -8 -30 0 -20 15 8 14 22 14 30 1z m-1215 -9 c0 -5 -7 -12 -16 -15 -9 -4 -14 -13 -10 -21 3 -8 1 -15 -4 -15 -6 0 -10 3 -10 8 0 4 -3 17 -6 30 -5 19 -2 22 20 22 14 0 26 -4 26 -9z m-89 -44 c-10 -9 -11 -8 -5 6 3 10 9 15 12 12 3 -3 0 -11 -7 -18z m1526 1 c-3 -8 -6 -5 -6 6 -1 11 2 17 5 13 3 -3 4 -12 1 -19z m-543 -10 c23 -37 30 -71 15 -66 -8 3 -15 11 -15 19 -1 8 -2 20 -3 27 0 6 -8 12 -16 12 -8 0 -15 7 -15 15 0 22 18 18 34 -7z m240 13 c3 -5 -1 -11 -9 -15 -9 -3 -15 0 -15 9 0 16 16 20 24 6z m135 -40 c8 -5 10 -14 6 -21 -4 -7 -2 -16 6 -21 10 -6 8 -9 -8 -9 -13 0 -23 5 -23 10 0 7 -6 7 -19 1 -14 -8 -22 -7 -31 3 -9 12 -7 13 8 9 14 -3 22 1 27 16 7 23 13 25 34 12z m-312 -98 c-17 -18 -22 -8 -11 22 5 12 10 13 17 6 8 -8 6 -16 -6 -28z m203 -63 c0 -5 -4 -10 -10 -10 -5 0 -10 5 -10 10 0 6 5 10 10 10 6 0 10 -4 10 -10z m-1090 -22 c0 -5 -4 -6 -10 -3 -22 14 -8 -11 17 -29 18 -14 28 -16 31 -8 2 7 11 12 20 12 15 -1 15 -2 0 -11 -11 -6 -18 -22 -18 -39 l0 -29 -25 25 c-14 14 -25 32 -25 40 0 10 -5 12 -12 7 -21 -13 -38 -12 -38 2 0 7 7 15 15 19 8 3 15 12 15 20 0 10 6 13 15 10 8 -4 15 -10 15 -16z m278 -18 c1 -14 -2 -31 -7 -39 -14 -22 -31 -3 -31 35 0 28 4 35 18 32 10 -2 18 -14 20 -28z m262 10 c0 -30 -21 -69 -41 -75 -14 -5 -17 -13 -13 -35 4 -15 1 -36 -4 -47 -10 -17 -11 -17 -17 0 -4 9 -1 24 6 33 10 13 10 17 -1 24 -11 7 -9 14 13 34 15 14 30 39 33 56 7 33 24 41 24 10z m580 -10 c0 -5 -10 -10 -22 -9 -22 0 -22 1 -3 9 11 5 21 9 23 9 1 1 2 -3 2 -9z m-1310 -30 c0 -5 -4 -10 -10 -10 -5 0 -10 5 -10 10 0 6 5 10 10 10 6 0 10 -4 10 -10z m1310 0 c0 -5 -4 -10 -10 -10 -5 0 -10 5 -10 10 0 6 5 10 10 10 6 0 10 -4 10 -10z m-950 -20 c0 -5 -4 -10 -9 -10 -6 0 -13 5 -16 10 -3 6 1 10 9 10 9 0 16 -4 16 -10z m38 -60 c10 0 14 -24 12 -67 -1 -9 -25 -8 -57 2 -16 5 -27 0 -44 -19 -46 -52 -62 -20 -22 43 14 21 17 22 25 8 5 -10 21 -17 38 -17 23 0 30 5 30 20 0 13 -7 20 -19 20 -24 0 -35 15 -27 37 6 14 9 13 29 -6 13 -11 29 -21 35 -21z m12 30 c0 -5 -2 -10 -4 -10 -3 0 -8 5 -11 10 -3 6 -1 10 4 10 6 0 11 -4 11 -10z m820 0 c0 -5 -5 -10 -11 -10 -5 0 -7 5 -4 10 3 6 8 10 11 10 2 0 4 -4 4 -10z m-940 -10 c-8 -5 -24 -10 -35 -10 -17 0 -17 2 -5 10 8 5 24 10 35 10 17 0 17 -2 5 -10z m1009 1 c18 -11 5 -31 -20 -31 -12 0 -19 7 -19 20 0 21 16 26 39 11z m-125 -17 c11 -28 7 -44 -9 -38 -8 4 -15 17 -15 30 0 27 15 32 24 8z m-921 -11 c31 -9 18 -23 -19 -19 -42 5 -49 10 -39 26 4 6 14 8 24 5 9 -4 24 -10 34 -12z m342 -13 c8 -13 -20 -24 -41 -16 -20 8 -9 26 16 26 10 0 22 -5 25 -10z m685 -20 c0 -5 -4 -10 -9 -10 -6 0 -13 5 -16 10 -3 6 1 10 9 10 9 0 16 -4 16 -10z m-53 -37 c-3 -10 -5 -4 -5 12 0 17 2 24 5 18 2 -7 2 -21 0 -30z m-547 -23 c0 -13 -1 -13 -10 0 -5 8 -10 22 -10 30 0 13 1 13 10 0 5 -8 10 -22 10 -30z m-200 15 c0 -8 -4 -15 -10 -15 -5 0 -7 7 -4 15 4 8 8 15 10 15 2 0 4 -7 4 -15z m727 -10 c3 -9 3 -19 -1 -22 -8 -9 -37 18 -30 28 8 14 24 11 31 -6z m-732 -32 c2 -7 -1 -13 -6 -13 -7 0 -9 -9 -6 -22 3 -12 1 -31 -5 -42 -7 -12 -11 -39 -11 -61 0 -22 -1 -34 -4 -27 -3 6 -13 12 -24 12 -14 0 -19 7 -19 30 0 22 5 30 18 30 14 0 15 2 2 10 -12 7 -13 13 -4 27 9 14 8 24 -2 45 -14 26 -14 27 21 25 19 -1 37 -8 40 -14z m235 -43 c0 -5 -2 -10 -4 -10 -3 0 -8 5 -11 10 -3 6 -1 10 4 10 6 0 11 -4 11 -10z m-33 -42 c-3 -8 -6 -5 -6 6 -1 11 2 17 5 13 3 -3 4 -12 1 -19z m-367 -48 c0 -5 -7 -10 -15 -10 -8 0 -15 5 -15 10 0 6 7 10 15 10 8 0 15 -4 15 -10z m87 -36 c-3 -3 -12 -4 -19 -1 -8 3 -5 6 6 6 11 1 17 -2 13 -5z"/>
        <path d="M3484 1534 c-6 -19 -7 -34 -3 -34 5 0 12 -1 17 -2 9 -4 13 60 3 66 -3 3 -11 -11 -17 -30z"/>
        <path d="M3497 1440 c-6 -24 8 -36 17 -14 8 22 7 34 -3 34 -5 0 -11 -9 -14 -20z"/>
        <path d="M1600 1266 c0 -9 5 -16 10 -16 6 0 10 4 10 9 0 6 -4 13 -10 16 -5 3 -10 -1 -10 -9z"/>
        <path d="M1667 1236 c-4 -10 -5 -21 -2 -24 9 -9 17 6 13 25 -3 17 -4 17 -11 -1z"/>
        <path d="M2845 1230 c-3 -5 -1 -10 4 -10 6 0 11 5 11 10 0 6 -2 10 -4 10 -3 0 -8 -4 -11 -10z"/>
        <path d="M2160 1210 c0 -5 5 -10 11 -10 5 0 7 5 4 10 -3 6 -8 10 -11 10 -2 0 -4 -4 -4 -10z"/>
        <path d="M380 1200 c0 -5 7 -10 16 -10 8 0 12 5 9 10 -3 6 -10 10 -16 10 -5 0 -9 -4 -9 -10z"/>
        <path d="M2195 1200 c3 -5 1 -10 -5 -10 -6 0 -4 -10 6 -25 18 -27 44 -34 44 -11 0 8 6 16 13 19 6 2 8 8 4 13 -4 5 -12 2 -18 -6 -8 -13 -10 -13 -18 0 -5 8 -7 18 -5 22 3 4 -2 8 -11 8 -9 0 -13 -4 -10 -10z"/>
        <path d="M2130 1191 c0 -6 5 -13 10 -16 6 -3 7 -17 4 -30 -3 -12 -1 -26 5 -29 11 -7 13 -2 15 44 1 24 -10 40 -26 40 -5 0 -8 -4 -8 -9z"/>
        <path d="M3000 1193 c0 -4 5 -15 10 -23 8 -13 10 -13 10 2 0 9 -4 20 -10 23 -5 3 -10 3 -10 -2z"/>
        <path d="M2560 1181 c0 -5 -3 -18 -6 -28 -4 -14 -4 -15 4 -4 5 7 15 10 21 7 6 -4 11 -1 11 7 0 8 -7 17 -15 21 -8 3 -15 1 -15 -3z"/>
        <path d="M2710 1148 c0 -23 3 -38 7 -35 3 4 12 2 19 -4 16 -13 33 -4 43 24 11 30 -8 57 -41 57 -26 0 -28 -3 -28 -42z"/>
        <path d="M1627 1174 c-11 -11 -8 -44 3 -44 15 0 24 30 13 41 -5 5 -12 6 -16 3z"/>
        <path d="M2800 1164 c0 -8 5 -12 10 -9 6 4 8 11 5 16 -9 14 -15 11 -15 -7z"/>
        <path d="M1256 1153 c-12 -12 -5 -23 14 -23 11 0 20 4 20 9 0 11 -26 22 -34 14z"/>
        <path d="M2036 1133 c9 -36 14 -44 23 -39 13 8 0 66 -15 66 -11 0 -13 -7 -8 -27z"/>
        <path d="M1800 1140 c0 -5 5 -10 10 -10 6 0 10 5 10 10 0 6 -4 10 -10 10 -5 0 -10 -4 -10 -10z"/>
        <path d="M1698 1129 c-25 -14 -22 -36 4 -42 17 -5 19 -9 9 -20 -9 -12 -8 -16 4 -21 10 -3 18 1 22 12 4 9 11 20 17 25 7 5 5 11 -6 18 -10 5 -18 17 -18 24 0 17 -8 18 -32 4z"/>
        <path d="M2573 1133 c-7 -2 -13 -9 -13 -15 0 -14 43 -6 48 10 4 12 -12 15 -35 5z"/>
        <path d="M1178 1116 c-15 -11 -15 -14 -2 -28 12 -11 13 -21 4 -42 -9 -25 -8 -27 12 -24 29 4 54 73 34 94 -18 17 -26 17 -48 0z"/>
        <path d="M1320 1120 c0 -5 5 -10 11 -10 5 0 7 5 4 10 -3 6 -8 10 -11 10 -2 0 -4 -4 -4 -10z"/>
        <path d="M2000 1110 c0 -19 3 -21 12 -12 9 9 9 15 0 24 -9 9 -12 7 -12 -12z"/>
        <path d="M2136 1091 c-4 -5 12 -29 34 -52 22 -24 40 -47 40 -51 0 -4 5 -8 10 -8 20 0 9 27 -25 64 -19 21 -35 42 -35 47 0 12 -17 12 -24 0z"/>
        <path d="M2210 1085 c0 -8 7 -15 15 -15 8 0 15 4 15 9 0 5 -7 11 -15 15 -9 3 -15 0 -15 -9z"/>
        <path d="M1254 1079 c-7 -13 21 -39 42 -39 17 0 28 20 18 30 -17 15 -52 21 -60 9z"/>
        <path d="M1435 1060 c-4 -12 -5 -24 -2 -27 3 -2 8 5 12 17 4 12 5 24 2 27 -3 2 -8 -5 -12 -17z"/>
        <path d="M2500 1065 c0 -8 7 -15 15 -15 8 0 15 7 15 15 0 8 -7 15 -15 15 -8 0 -15 -7 -15 -15z"/>
        <path d="M2285 1040 c4 -6 11 -8 16 -5 14 9 11 15 -7 15 -8 0 -12 -5 -9 -10z"/>
        <path d="M2430 1040 c0 -5 7 -10 15 -10 8 0 15 5 15 10 0 6 -7 10 -15 10 -8 0 -15 -4 -15 -10z"/>
        <path d="M1782 1031 c-10 -6 -10 -10 3 -21 13 -11 15 -9 15 9 0 24 0 24 -18 12z"/>
        <path d="M3001 1025 c0 -11 4 -27 9 -35 9 -13 10 -13 9 0 0 8 -4 24 -9 35 l-9 20 0 -20z"/>
        <path d="M1111 994 c-11 -13 -11 -20 -1 -40 15 -27 45 -32 54 -9 4 12 0 14 -19 9 -19 -5 -25 -2 -25 10 0 9 5 16 10 16 6 0 10 7 10 15 0 19 -11 19 -29 -1z"/>
        <path d="M1686 964 c-12 -48 14 -44 29 4 4 16 2 22 -8 22 -8 0 -18 -12 -21 -26z"/>
        <path d="M2855 980 c-3 -5 1 -10 9 -10 9 0 16 5 16 10 0 6 -4 10 -9 10 -6 0 -13 -4 -16 -10z"/>
        <path d="M1310 960 c0 -5 5 -10 10 -10 6 0 10 5 10 10 0 6 -4 10 -10 10 -5 0 -10 -4 -10 -10z"/>
        <path d="M181 934 c0 -11 3 -14 6 -6 3 7 2 16 -1 19 -3 4 -6 -2 -5 -13z"/>
        <path d="M2385 940 c3 -5 8 -10 11 -10 2 0 4 5 4 10 0 6 -5 10 -11 10 -5 0 -7 -4 -4 -10z"/>
        <path d="M1578 906 c-20 -15 -23 -32 -8 -41 19 -12 46 5 48 30 2 28 -13 32 -40 11z"/>
        <path d="M290 899 c0 -5 5 -7 10 -4 6 3 10 8 10 11 0 2 -4 4 -10 4 -5 0 -10 -5 -10 -11z"/>
        <path d="M4179 888 c-7 -25 -7 -48 1 -48 6 0 10 7 10 15 0 8 5 15 11 15 5 0 7 5 4 10 -5 9 -24 14 -26 8z"/>
        <path d="M250 831 c0 -5 6 -14 14 -20 16 -13 32 2 21 19 -8 12 -35 13 -35 1z"/>
        <path d="M1720 800 c0 -5 5 -10 10 -10 6 0 10 5 10 10 0 6 -4 10 -10 10 -5 0 -10 -4 -10 -10z"/>
        <path d="M60 776 c0 -22 27 -27 33 -5 4 14 0 19 -14 19 -10 0 -19 -6 -19 -14z"/>
        <path d="M1665 780 c4 -6 11 -8 16 -5 14 9 11 15 -7 15 -8 0 -12 -5 -9 -10z"/>
        <path d="M1710 740 c0 -5 4 -10 9 -10 6 0 13 5 16 10 3 6 -1 10 -9 10 -9 0 -16 -4 -16 -10z"/>
        <path d="M1620 725 c0 -9 9 -15 21 -15 18 0 19 2 9 15 -7 8 -16 15 -21 15 -5 0 -9 -7 -9 -15z"/>
        <path d="M0 680 c0 -22 7 -25 29 -11 16 10 6 31 -15 31 -8 0 -14 -9 -14 -20z"/>
        <path d="M167 673 c-14 -13 -6 -23 18 -23 16 0 25 6 25 15 0 15 -31 21 -43 8z"/>
        <path d="M1650 657 c0 -7 4 -17 9 -22 5 -6 11 -21 14 -35 2 -14 5 -5 6 23 1 36 -3 47 -14 47 -8 0 -15 -6 -15 -13z"/>
        <path d="M1597 641 c-5 -22 1 -33 14 -25 12 7 12 44 0 44 -5 0 -11 -9 -14 -19z"/>
        <path d="M0 570 c0 -44 2 -80 4 -80 15 0 36 36 36 61 0 16 5 29 10 29 6 0 10 -11 10 -24 0 -27 16 -34 68 -31 32 2 56 21 47 36 -3 3 -15 4 -29 2 -13 -3 -32 0 -43 6 -10 6 -12 11 -5 11 6 0 12 5 12 10 0 6 -12 9 -27 9 -49 -3 -63 1 -63 16 0 8 6 15 13 15 13 0 -12 20 -25 20 -5 0 -8 -36 -8 -80z"/>
        <path d="M1210 620 c0 -5 6 -10 14 -10 8 0 18 5 21 10 3 6 -3 10 -14 10 -12 0 -21 -4 -21 -10z"/>
        <path d="M94 458 c-5 -18 -8 -19 -15 -5 -11 18 -39 12 -39 -9 0 -8 9 -14 21 -14 13 0 19 -5 15 -12 -3 -7 -9 -21 -12 -30 -9 -24 -35 -23 -41 2 -7 25 -23 26 -23 2 0 -21 25 -44 65 -57 16 -6 34 -19 40 -30 24 -46 28 -50 36 -27 10 26 -9 81 -35 103 -12 10 -17 22 -13 32 8 20 27 23 27 4 0 -8 9 -22 21 -33 20 -18 20 -18 14 11 -4 17 -14 35 -21 41 -8 6 -14 19 -14 28 0 23 -17 20 -26 -6z"/>
        <path d="M2550 459 c0 -5 5 -7 10 -4 6 3 10 8 10 11 0 2 -4 4 -10 4 -5 0 -10 -5 -10 -11z"/>
        <path d="M2507 393 c-11 -10 -8 -43 3 -43 6 0 10 11 10 25 0 26 -2 29 -13 18z"/>
        <path d="M0 320 c0 -6 7 -10 15 -10 8 0 15 2 15 4 0 2 -7 6 -15 10 -8 3 -15 1 -15 -4z"/>
        <path d="M0 287 c0 -7 6 -25 13 -40 10 -23 18 -27 55 -27 35 0 42 3 42 20 0 16 -5 19 -23 15 -18 -5 -28 0 -41 19 -17 27 -46 35 -46 13z"/>
        <path d="M18 183 c-22 -5 -24 -23 -3 -23 8 0 15 -4 15 -10 0 -5 -7 -10 -15 -10 -8 0 -15 -4 -15 -10 0 -5 9 -10 20 -10 11 0 20 -4 20 -9 0 -21 -13 -41 -26 -41 -9 0 -14 -12 -14 -35 0 -39 9 -43 46 -18 22 14 27 14 35 2 6 -10 9 -3 9 23 0 20 -7 44 -16 53 -20 19 -4 44 30 46 16 1 17 2 4 6 -9 2 -20 13 -23 24 -6 19 -28 22 -67 12z"/>
        <path d="M2247 73 c-10 -10 -8 -43 2 -43 9 0 21 24 21 41 0 11 -14 12 -23 2z"/>
    </g>
</svg>